<?xml version="1.0" encoding="UTF-8"?>
<svg version="1.1" xmlns="http://www.w3.org/2000/svg" width="32" height="32">
<path d="M0 0 C2.29225435 0.11371497 4.58382388 0.24130964 6.875 0.375 C8.15117187 0.44460937 9.42734375 0.51421875 10.7421875 0.5859375 C14 1 14 1 16 3 C16.45070231 6.22903163 16.32403283 9.4931285 16.3125 12.75 C16.32861328 13.64460937 16.34472656 14.53921875 16.36132812 15.4609375 C16.36524274 20.76915599 15.87458735 24.37155049 13 29 C12.67 29.66 12.34 30.32 12 31 C9.36 31 6.72 31 4 31 C3.67 30.34 3.34 29.68 3 29 C3.33 28.01 3.66 27.02 4 26 C4.03954234 23.66700175 4.04401732 21.33291811 4 19 C4.433125 19.61875 4.86625 20.2375 5.3125 20.875 C6.99740483 23.2197245 6.99740483 23.2197245 10 25 C10.99 22.69 11.98 20.38 13 18 C12.01 17.67 11.02 17.34 10 17 C10 15.02 10 13.04 10 11 C9.01 11 8.02 11 7 11 C7 12.98 7 14.96 7 17 C5.68 17 4.36 17 3 17 C3.01160156 17.74765625 3.02320312 18.4953125 3.03515625 19.265625 C3.04417969 20.25046875 3.05320312 21.2353125 3.0625 22.25 C3.07410156 23.22453125 3.08570312 24.1990625 3.09765625 25.203125 C3.01195577 27.65758678 2.70706066 29.66168914 2 32 C-0.31 31.67 -2.62 31.34 -5 31 C-4 28 -4 28 -3 26 C-3.99 26.66 -4.98 27.32 -6 28 C-6 28.99 -6 29.98 -6 31 C-8.875 31.125 -8.875 31.125 -12 31 C-14.85407879 28.14592121 -14.29041149 25.91139164 -14.32226562 22.0078125 C-14.31904297 21.09773438 -14.31582031 20.18765625 -14.3125 19.25 C-14.33666992 17.90808594 -14.33666992 17.90808594 -14.36132812 16.5390625 C-14.36524274 11.23084401 -13.87458735 7.62844951 -11 3 C-10.67 2.34 -10.34 1.68 -10 1 C-7.36 1 -4.72 1 -2 1 C-1.67 1.66 -1.34 2.32 -1 3 C-0.67 2.01 -0.34 1.02 0 0 Z M3 4 C4 6 4 6 4 6 Z M5 4 C5 4.66 5 5.32 5 6 C6.98 6 8.96 6 11 6 C11 5.34 11 4.68 11 4 C9.02 4 7.04 4 5 4 Z M12 4 C13 6 13 6 13 6 Z M-8 6 C-10.62386487 9.06117568 -11 9.73173127 -11 14 C-8.03 14 -5.06 14 -2 14 C-2.10169161 11.05272465 -2.10169161 11.05272465 -3 8 C-5.46255685 6.54708727 -5.46255685 6.54708727 -8 6 Z M5 9 C5 9.33 5 9.66 5 10 C6.98 10 8.96 10 11 10 C11 9.67 11 9.34 11 9 C9.02 9 7.04 9 5 9 Z M12 9 C13 12 13 12 13 12 Z M-1 13 C0 15 0 15 0 15 Z M-11 15 C-11 15.33 -11 15.66 -11 16 C-7.7 16 -4.4 16 -1 16 C-1 15.67 -1 15.34 -1 15 C-4.3 15 -7.6 15 -11 15 Z M-9 20 C-9 20.33 -9 20.66 -9 21 C-7.02 21 -5.04 21 -3 21 C-3 20.67 -3 20.34 -3 20 C-4.98 20 -6.96 20 -9 20 Z M-11 24 C-10 28 -10 28 -10 28 Z M-9 24 C-9 24.33 -9 24.66 -9 25 C-7.02 25 -5.04 25 -3 25 C-3 24.67 -3 24.34 -3 24 C-4.98 24 -6.96 24 -9 24 Z M-2 24 C-1 28 -1 28 -1 28 Z " fill="#292D32" transform="translate(15,0)"/>
<path d="M0 0 C0.99 0.33 1.98 0.66 3 1 C2.01 1.33 1.02 1.66 0 2 C0 1.34 0 0.68 0 0 Z " fill="#292D32" transform="translate(18,17)"/>
<path d="" fill="#292D32" transform="translate(0,0)"/>
<path d="" fill="#292D32" transform="translate(0,0)"/>
<path d="M0 0 C2 1 2 1 2 1 Z " fill="#292D32" transform="translate(23,31)"/>
<path d="" fill="#292D32" transform="translate(0,0)"/>
<path d="" fill="#292D32" transform="translate(0,0)"/>
<path d="" fill="#292D32" transform="translate(0,0)"/>
<path d="" fill="#292D32" transform="translate(0,0)"/>
<path d="" fill="#292D32" transform="translate(0,0)"/>
<path d="" fill="#292D32" transform="translate(0,0)"/>
<path d="" fill="#292D32" transform="translate(0,0)"/>
<path d="M0 0 C2 1 2 1 2 1 Z " fill="#292D32" transform="translate(7,0)"/>
<path d="" fill="#292D32" transform="translate(0,0)"/>
<path d="" fill="#292D32" transform="translate(0,0)"/>
<path d="" fill="#292D32" transform="translate(0,0)"/>
<path d="" fill="#292D32" transform="translate(0,0)"/>
<path d="" fill="#292D32" transform="translate(0,0)"/>
<path d="" fill="#292D32" transform="translate(0,0)"/>
<path d="" fill="#292D32" transform="translate(0,0)"/>
<path d="" fill="#292D32" transform="translate(0,0)"/>
<path d="" fill="#292D32" transform="translate(0,0)"/>
<path d="" fill="#292D32" transform="translate(0,0)"/>
<path d="" fill="#292D32" transform="translate(0,0)"/>
<path d="" fill="#292D32" transform="translate(0,0)"/>
<path d="" fill="#292D32" transform="translate(0,0)"/>
<path d="" fill="#292D32" transform="translate(0,0)"/>
<path d="" fill="#292D32" transform="translate(0,0)"/>
<path d="" fill="#292D32" transform="translate(0,0)"/>
</svg>
