<?xml version="1.0" encoding="UTF-8"?>
<svg version="1.1" xmlns="http://www.w3.org/2000/svg" width="32" height="32">
<path d="M0 0 C1.93166016 0.01740234 1.93166016 0.01740234 3.90234375 0.03515625 C5.19269531 0.04417969 6.48304687 0.05320313 7.8125 0.0625 C8.81152344 0.07410156 9.81054688 0.08570312 10.83984375 0.09765625 C11.95703125 3.81640625 11.95703125 3.81640625 10.90234375 6.34765625 C10.55171875 6.92515625 10.20109375 7.50265625 9.83984375 8.09765625 C7.19984375 7.76765625 4.55984375 7.43765625 1.83984375 7.09765625 C1.92363281 8.08507812 2.00742188 9.0725 2.09375 10.08984375 C2.19558594 11.37117187 2.29742188 12.6525 2.40234375 13.97265625 C2.50675781 15.24882812 2.61117188 16.525 2.71875 17.83984375 C2.83984375 21.09765625 2.83984375 21.09765625 1.83984375 23.09765625 C2.80921875 22.91203125 3.77859375 22.72640625 4.77734375 22.53515625 C9.22397581 21.87909578 13.42069358 22.44630759 17.83984375 23.09765625 C17.50984375 20.45765625 17.17984375 17.81765625 16.83984375 15.09765625 C17.47921875 14.82953125 18.11859375 14.56140625 18.77734375 14.28515625 C21.17116061 13.21097873 21.17116061 13.21097873 21.83984375 10.09765625 C22.16984375 10.09765625 22.49984375 10.09765625 22.83984375 10.09765625 C23.65846534 13.67750145 23.97505273 16.99002726 23.96484375 20.66015625 C23.96871094 22.05427734 23.96871094 22.05427734 23.97265625 23.4765625 C23.85236622 25.85052153 23.45099119 27.815412 22.83984375 30.09765625 C18.71427685 29.98817519 14.58965497 29.857454 10.46484375 29.72265625 C9.28921875 29.69171875 8.11359375 29.66078125 6.90234375 29.62890625 C5.78085938 29.59023438 4.659375 29.5515625 3.50390625 29.51171875 C1.94857178 29.4645874 1.94857178 29.4645874 0.36181641 29.41650391 C-2.16015625 29.09765625 -2.16015625 29.09765625 -4.16015625 27.09765625 C-4.40307617 24.49975586 -4.40307617 24.49975586 -4.390625 21.25 C-4.38869141 20.08791016 -4.38675781 18.92582031 -4.38476562 17.72851562 C-4.37251953 16.50970703 -4.36027344 15.29089844 -4.34765625 14.03515625 C-4.34701172 12.81248047 -4.34636719 11.58980469 -4.34570312 10.33007812 C-4.29474463 0.1327177 -4.29474463 0.1327177 0 0 Z M-0.16015625 5.09765625 C-0.16015625 11.69765625 -0.16015625 18.29765625 -0.16015625 25.09765625 C0.16984375 25.09765625 0.49984375 25.09765625 0.83984375 25.09765625 C0.83984375 18.49765625 0.83984375 11.89765625 0.83984375 5.09765625 C0.50984375 5.09765625 0.17984375 5.09765625 -0.16015625 5.09765625 Z M1.83984375 24.09765625 C1.83984375 24.42765625 1.83984375 24.75765625 1.83984375 25.09765625 C7.11984375 25.09765625 12.39984375 25.09765625 17.83984375 25.09765625 C17.83984375 24.76765625 17.83984375 24.43765625 17.83984375 24.09765625 C12.55984375 24.09765625 7.27984375 24.09765625 1.83984375 24.09765625 Z " fill="#000000" transform="translate(5.16015625,1.90234375)"/>
<path d="M0 0 C0.77257544 6.72289201 0.77257544 6.72289201 -1.18359375 9.95654297 C-2.86396734 11.90448216 -4.6293747 13.67185877 -6.5 15.4375 C-7.10070313 16.06076172 -7.70140625 16.68402344 -8.3203125 17.32617188 C-12.7583287 21.66504091 -15.79857181 22.8422203 -22 23 C-21.86106721 16.71329133 -20.63585544 13.79212433 -16.1796875 9.36914062 C-15.54289063 8.77294922 -14.90609375 8.17675781 -14.25 7.5625 C-13.62867188 6.93923828 -13.00734375 6.31597656 -12.3671875 5.67382812 C-8.36485869 1.79393343 -5.69609894 0 0 0 Z M-6 5 C-7.83947337 6.78572252 -9.67157741 8.57802449 -11.5 10.375 C-12.02464844 10.88289062 -12.54929687 11.39078125 -13.08984375 11.9140625 C-14.43153181 13.23832604 -15.71995815 14.61605865 -17 16 C-17 16.66 -17 17.32 -17 18 C-13.31930113 16.46356148 -11.01224796 14.21849055 -8.25 11.375 C-7.45078125 10.55773437 -6.6515625 9.74046875 -5.828125 8.8984375 C-5.22484375 8.27195312 -4.6215625 7.64546875 -4 7 C-4.66 6.34 -5.32 5.68 -6 5 Z " fill="#000000" transform="translate(31,0)"/>
<path d="M0 0 C0.33 0 0.66 0 1 0 C1 3.63 1 7.26 1 11 C0.67 11 0.34 11 0 11 C0 7.37 0 3.74 0 0 Z " fill="#000000" transform="translate(30,17)"/>
<path d="M0 0 C3.63 0 7.26 0 11 0 C11 0.33 11 0.66 11 1 C7.37 1 3.74 1 0 1 C0 0.67 0 0.34 0 0 Z " fill="#000000" transform="translate(4,1)"/>
<path d="M0 0 C0.99 0.33 1.98 0.66 3 1 C2.01 1 1.02 1 0 1 C0 0.67 0 0.34 0 0 Z " fill="#000000" transform="translate(17,4)"/>
<path d="M0 0 C3 1 3 1 3 1 Z " fill="#000000" transform="translate(14,23)"/>
<path d="" fill="#000000" transform="translate(0,0)"/>
<path d="" fill="#000000" transform="translate(0,0)"/>
<path d="" fill="#000000" transform="translate(0,0)"/>
<path d="" fill="#000000" transform="translate(0,0)"/>
<path d="" fill="#000000" transform="translate(0,0)"/>
<path d="" fill="#000000" transform="translate(0,0)"/>
<path d="" fill="#000000" transform="translate(0,0)"/>
<path d="" fill="#000000" transform="translate(0,0)"/>
<path d="" fill="#000000" transform="translate(0,0)"/>
<path d="" fill="#000000" transform="translate(0,0)"/>
<path d="" fill="#000000" transform="translate(0,0)"/>
<path d="" fill="#000000" transform="translate(0,0)"/>
<path d="" fill="#000000" transform="translate(0,0)"/>
<path d="" fill="#000000" transform="translate(0,0)"/>
<path d="" fill="#000000" transform="translate(0,0)"/>
<path d="" fill="#000000" transform="translate(0,0)"/>
<path d="" fill="#000000" transform="translate(0,0)"/>
<path d="" fill="#000000" transform="translate(0,0)"/>
<path d="" fill="#000000" transform="translate(0,0)"/>
<path d="" fill="#000000" transform="translate(0,0)"/>
<path d="" fill="#000000" transform="translate(0,0)"/>
<path d="" fill="#000000" transform="translate(0,0)"/>
<path d="" fill="#000000" transform="translate(0,0)"/>
<path d="" fill="#000000" transform="translate(0,0)"/>
<path d="" fill="#000000" transform="translate(0,0)"/>
<path d="" fill="#000000" transform="translate(0,0)"/>
<path d="" fill="#000000" transform="translate(0,0)"/>
<path d="" fill="#000000" transform="translate(0,0)"/>
<path d="" fill="#000000" transform="translate(0,0)"/>
<path d="" fill="#000000" transform="translate(0,0)"/>
<path d="" fill="#000000" transform="translate(0,0)"/>
<path d="" fill="#000000" transform="translate(0,0)"/>
<path d="" fill="#000000" transform="translate(0,0)"/>
<path d="" fill="#000000" transform="translate(0,0)"/>
<path d="" fill="#000000" transform="translate(0,0)"/>
<path d="" fill="#000000" transform="translate(0,0)"/>
<path d="" fill="#000000" transform="translate(0,0)"/>
<path d="" fill="#000000" transform="translate(0,0)"/>
<path d="" fill="#000000" transform="translate(0,0)"/>
<path d="" fill="#000000" transform="translate(0,0)"/>
<path d="" fill="#000000" transform="translate(0,0)"/>
</svg>
