<?xml version="1.0" encoding="UTF-8"?>
<svg version="1.1" xmlns="http://www.w3.org/2000/svg" width="32" height="32">
<path d="M0 0 C1.06992188 -0.04898438 2.13984375 -0.09796875 3.2421875 -0.1484375 C6.125 0.375 6.125 0.375 7.7578125 2.6484375 C8.20898438 3.54820313 8.66015625 4.44796875 9.125 5.375 C9.84042969 5.92800781 10.55585938 6.48101562 11.29296875 7.05078125 C14.27330384 10.83180338 13.58502613 14.9039528 13.4375 19.5625 C13.42783203 20.48998047 13.41816406 21.41746094 13.40820312 22.37304688 C13.29322452 29.20677548 13.29322452 29.20677548 12.125 30.375 C10.78232587 30.46131874 9.43525678 30.48206473 8.08984375 30.47265625 C7.28095703 30.46943359 6.47207031 30.46621094 5.63867188 30.46289062 C4.78853516 30.45451172 3.93839844 30.44613281 3.0625 30.4375 C2.20849609 30.43298828 1.35449219 30.42847656 0.47460938 30.42382812 C-1.64195663 30.41200373 -3.75848685 30.39406769 -5.875 30.375 C-6.94046953 27.1785914 -6.94927838 24.71752724 -6.875 21.375 C-7.865 21.045 -8.855 20.715 -9.875 20.375 C-9.875 19.715 -9.875 19.055 -9.875 18.375 C-8.885 18.045 -7.895 17.715 -6.875 17.375 C-6.88660156 16.23160156 -6.89820313 15.08820312 -6.91015625 13.91015625 C-6.91953288 12.41927246 -6.92863321 10.92838691 -6.9375 9.4375 C-6.94587891 8.68275391 -6.95425781 7.92800781 -6.96289062 7.15039062 C-6.97152441 5.22505687 -6.92724333 3.29964419 -6.875 1.375 C-5.06460804 -0.43539196 -2.44409565 0.07619483 0 0 Z M-4.875 1.375 C-4.875 1.705 -4.875 2.035 -4.875 2.375 C-1.575 2.375 1.725 2.375 5.125 2.375 C5.125 2.045 5.125 1.715 5.125 1.375 C1.825 1.375 -1.475 1.375 -4.875 1.375 Z M-3.875 4.375 C-3.875 8.005 -3.875 11.635 -3.875 15.375 C-3.545 15.375 -3.215 15.375 -2.875 15.375 C-2.875 11.745 -2.875 8.115 -2.875 4.375 C-3.205 4.375 -3.535 4.375 -3.875 4.375 Z M1.125 4.375 C1.125 6.355 1.125 8.335 1.125 10.375 C1.455 10.375 1.785 10.375 2.125 10.375 C2.125 8.395 2.125 6.415 2.125 4.375 C1.795 4.375 1.465 4.375 1.125 4.375 Z M-1.875 6.375 C-1.875 8.355 -1.875 10.335 -1.875 12.375 C-0.885 12.375 0.105 12.375 1.125 12.375 C0.795 10.395 0.465 8.415 0.125 6.375 C-0.535 6.375 -1.195 6.375 -1.875 6.375 Z M5.125 6.375 C5.455 7.695 5.785 9.015 6.125 10.375 C6.455 9.385 6.785 8.395 7.125 7.375 C6.465 7.045 5.805 6.715 5.125 6.375 Z M2.125 10.375 C3.125 12.375 3.125 12.375 3.125 12.375 Z M9.125 12.375 C10.125 15.375 10.125 15.375 10.125 15.375 Z M-1.875 13.375 C-1.875 13.705 -1.875 14.035 -1.875 14.375 C1.425 14.375 4.725 14.375 8.125 14.375 C8.125 13.715 8.125 13.055 8.125 12.375 C4.61564814 12.375 1.56015002 12.75042727 -1.875 13.375 Z M9.125 17.375 C10.125 21.375 10.125 21.375 10.125 21.375 Z M-3.875 23.375 C-2.875 26.375 -2.875 26.375 -2.875 26.375 Z M9.125 23.375 C10.125 26.375 10.125 26.375 10.125 26.375 Z M-1.875 24.375 C-1.875 25.035 -1.875 25.695 -1.875 26.375 C1.425 26.375 4.725 26.375 8.125 26.375 C8.125 25.715 8.125 25.055 8.125 24.375 C4.825 24.375 1.525 24.375 -1.875 24.375 Z M-4.875 28.375 C-4.875 28.705 -4.875 29.035 -4.875 29.375 C0.405 29.375 5.685 29.375 11.125 29.375 C11.125 29.045 11.125 28.715 11.125 28.375 C5.845 28.375 0.565 28.375 -4.875 28.375 Z " fill="#212121" transform="translate(12.875,0.625)"/>
<path d="M0 0 C0.33 0 0.66 0 1 0 C1 5.94 1 11.88 1 18 C0.67 18 0.34 18 0 18 C0 12.06 0 6.12 0 0 Z " fill="#212121" transform="translate(27,10)"/>
<path d="M0 0 C0.33 0 0.66 0 1 0 C1 4.62 1 9.24 1 14 C0.34 13.67 -0.32 13.34 -1 13 C-0.67 8.71 -0.34 4.42 0 0 Z " fill="#212121" transform="translate(4,4)"/>
<path d="M0 0 C0.66 0 1.32 0 2 0 C2 1.98 2 3.96 2 6 C1.67 6 1.34 6 1 6 C0.67 4.02 0.34 2.04 0 0 Z " fill="#212121" transform="translate(3,22)"/>
<path d="" fill="#212121" transform="translate(0,0)"/>
<path d="" fill="#212121" transform="translate(0,0)"/>
<path d="" fill="#212121" transform="translate(0,0)"/>
<path d="" fill="#212121" transform="translate(0,0)"/>
<path d="" fill="#212121" transform="translate(0,0)"/>
<path d="" fill="#212121" transform="translate(0,0)"/>
<path d="" fill="#212121" transform="translate(0,0)"/>
<path d="" fill="#212121" transform="translate(0,0)"/>
<path d="" fill="#212121" transform="translate(0,0)"/>
<path d="" fill="#212121" transform="translate(0,0)"/>
<path d="" fill="#212121" transform="translate(0,0)"/>
</svg>
