<?xml version="1.0" encoding="UTF-8"?>
<svg version="1.1" xmlns="http://www.w3.org/2000/svg" width="32" height="32">
<path d="M0 0 C2.375 0.1875 2.375 0.1875 5 1 C6.57437597 3.69893023 7.01183758 5.50282184 6.9375 8.625 C7.01786821 11.67899182 7.85174982 11.93131464 10 14 C12.03971363 18.07942726 13.62101695 21.4044746 13 26 C12 28.3125 12 28.3125 11 30 C9.02 29.67 7.04 29.34 5 29 C3.88508733 25.65526199 4.19488729 23.39936478 5 20 C5 19.34 5 18.68 5 18 C2.69 18 0.38 18 -2 18 C-1.34 18.99 -0.68 19.98 0 21 C0.3125 24.5625 0.3125 24.5625 0 28 C-3 30 -3 30 -5.6875 29.625 C-6.8321875 29.315625 -6.8321875 29.315625 -8 29 C-9.2001922 22.78082224 -9.06213845 19.57746646 -6 14 C-5.443125 13.505 -4.88625 13.01 -4.3125 12.5 C-2.62273174 10.90102833 -2.62273174 10.90102833 -3 7.5625 C-3 3.74993862 -2.57292123 2.68012628 0 0 Z M-1 8 C0 12 0 12 0 12 Z M4 8 C5 12 5 12 5 12 Z " fill="#000000" transform="translate(14,2)"/>
<path d="M0 0 C0.66 0 1.32 0 2 0 C2 1.32 2 2.64 2 4 C1.34 4 0.68 4 0 4 C0 2.68 0 1.36 0 0 Z " fill="#000000" transform="translate(15,23)"/>
<path d="M0 0 C0.33 0 0.66 0 1 0 C1 1.65 1 3.3 1 5 C0.67 5 0.34 5 0 5 C0 3.35 0 1.7 0 0 Z " fill="#000000" transform="translate(28,23)"/>
<path d="M0 0 C0.33 0 0.66 0 1 0 C1 1.65 1 3.3 1 5 C0.67 5 0.34 5 0 5 C0 3.35 0 1.7 0 0 Z " fill="#000000" transform="translate(3,23)"/>
<path d="M0 0 C4 1 4 1 4 1 Z " fill="#000000" transform="translate(14,0)"/>
<path d="" fill="#000000" transform="translate(0,0)"/>
<path d="" fill="#000000" transform="translate(0,0)"/>
<path d="" fill="#000000" transform="translate(0,0)"/>
<path d="" fill="#000000" transform="translate(0,0)"/>
<path d="" fill="#000000" transform="translate(0,0)"/>
<path d="" fill="#000000" transform="translate(0,0)"/>
<path d="" fill="#000000" transform="translate(0,0)"/>
<path d="" fill="#000000" transform="translate(0,0)"/>
<path d="" fill="#000000" transform="translate(0,0)"/>
<path d="" fill="#000000" transform="translate(0,0)"/>
<path d="" fill="#000000" transform="translate(0,0)"/>
<path d="" fill="#000000" transform="translate(0,0)"/>
<path d="" fill="#000000" transform="translate(0,0)"/>
<path d="" fill="#000000" transform="translate(0,0)"/>
<path d="" fill="#000000" transform="translate(0,0)"/>
<path d="" fill="#000000" transform="translate(0,0)"/>
<path d="" fill="#000000" transform="translate(0,0)"/>
<path d="" fill="#000000" transform="translate(0,0)"/>
<path d="" fill="#000000" transform="translate(0,0)"/>
<path d="" fill="#000000" transform="translate(0,0)"/>
<path d="" fill="#000000" transform="translate(0,0)"/>
<path d="" fill="#000000" transform="translate(0,0)"/>
<path d="" fill="#000000" transform="translate(0,0)"/>
<path d="" fill="#000000" transform="translate(0,0)"/>
<path d="" fill="#000000" transform="translate(0,0)"/>
<path d="" fill="#000000" transform="translate(0,0)"/>
<path d="" fill="#000000" transform="translate(0,0)"/>
<path d="" fill="#000000" transform="translate(0,0)"/>
<path d="" fill="#000000" transform="translate(0,0)"/>
<path d="" fill="#000000" transform="translate(0,0)"/>
<path d="" fill="#000000" transform="translate(0,0)"/>
<path d="" fill="#000000" transform="translate(0,0)"/>
</svg>
