<?xml version="1.0" encoding="UTF-8"?>
<svg version="1.1" xmlns="http://www.w3.org/2000/svg" width="32" height="32">
<path d="M0 0 C0.66 0.33 1.32 0.66 2 1 C1.96519531 1.67546875 1.93039063 2.3509375 1.89453125 3.046875 C1.86746094 3.93890625 1.84039063 4.8309375 1.8125 5.75 C1.76029297 7.07257812 1.76029297 7.07257812 1.70703125 8.421875 C2.06300059 11.55440518 2.72153963 12.83027309 5 15 C7.3937835 15.65957127 7.3937835 15.65957127 10 15.6875 C12.99390553 15.84343258 15.12806668 16.04268889 18 17 C17.34253099 20.55033266 16.29343274 23.18869535 14 26 C11.21400429 26.38060051 9.06627249 26.47962905 6.3125 26.3125 C5.61060547 26.28994141 4.90871094 26.26738281 4.18554688 26.24414062 C2.4561167 26.18531647 0.72778562 26.09563389 -1 26 C-7.08857462 16.41049498 -7.08857462 16.41049498 -6 10 C-4.125 6.8125 -4.125 6.8125 -2 4 C-1.30570621 2.6808418 -0.62469505 1.35350594 0 0 Z M11 18 C11 18.33 11 18.66 11 19 C12.65 19 14.3 19 16 19 C16 18.67 16 18.34 16 18 C14.35 18 12.7 18 11 18 Z " fill="#FFB500" transform="translate(10,2)"/>
<path d="M0 0 C2.31 0 4.62 0 7 0 C7 0.33 7 0.66 7 1 C4.69 1 2.38 1 0 1 C0 0.67 0 0.34 0 0 Z " fill="#FFB500" transform="translate(13,29)"/>
<path d="M0 0 C0.33 0 0.66 0 1 0 C1 2.31 1 4.62 1 7 C0.67 7 0.34 7 0 7 C0 4.69 0 2.38 0 0 Z " fill="#FFB500" transform="translate(2,12)"/>
<path d="M0 0 C0.33 0 0.66 0 1 0 C1 1.98 1 3.96 1 6 C0.67 6 0.34 6 0 6 C0 4.02 0 2.04 0 0 Z " fill="#FFB500" transform="translate(12,7)"/>
<path d="" fill="#FFB500" transform="translate(0,0)"/>
<path d="M0 0 C2 1 2 1 2 1 Z " fill="#FFB500" transform="translate(20,28)"/>
<path d="M0 0 C2 1 2 1 2 1 Z " fill="#FFB500" transform="translate(11,28)"/>
<path d="" fill="#FFB500" transform="translate(0,0)"/>
<path d="" fill="#FFB500" transform="translate(0,0)"/>
<path d="" fill="#FFB500" transform="translate(0,0)"/>
<path d="" fill="#FFB500" transform="translate(0,0)"/>
<path d="" fill="#FFB500" transform="translate(0,0)"/>
<path d="" fill="#FFB500" transform="translate(0,0)"/>
<path d="" fill="#FFB500" transform="translate(0,0)"/>
<path d="" fill="#FFB500" transform="translate(0,0)"/>
<path d="" fill="#FFB500" transform="translate(0,0)"/>
<path d="" fill="#FFB500" transform="translate(0,0)"/>
<path d="" fill="#FFB500" transform="translate(0,0)"/>
<path d="" fill="#FFB500" transform="translate(0,0)"/>
<path d="" fill="#FFB500" transform="translate(0,0)"/>
<path d="" fill="#FFB500" transform="translate(0,0)"/>
<path d="" fill="#FFB500" transform="translate(0,0)"/>
<path d="" fill="#FFB500" transform="translate(0,0)"/>
<path d="" fill="#FFB500" transform="translate(0,0)"/>
<path d="" fill="#FFB500" transform="translate(0,0)"/>
</svg>
