<?xml version="1.0" encoding="UTF-8"?>
<svg version="1.1" xmlns="http://www.w3.org/2000/svg" width="500" height="500">
<path d="M0 0 C0.7941056 -0.00508782 1.58821119 -0.01017564 2.40638059 -0.01541764 C5.04618232 -0.03101445 7.68595694 -0.03963279 10.32579041 -0.04811096 C12.22692025 -0.05765909 14.12804839 -0.06755066 16.0291748 -0.07775879 C22.25034047 -0.10900952 28.47151901 -0.12938384 34.69273376 -0.14796448 C35.75250199 -0.1512618 36.81227022 -0.15455912 37.90415263 -0.15795636 C47.90202967 -0.18871152 57.89990989 -0.21540775 67.89782047 -0.23237514 C80.67142308 -0.2543122 93.44460715 -0.29638352 106.21804243 -0.36581272 C115.21016844 -0.41302855 124.20218134 -0.43730474 133.19442743 -0.44457203 C138.56198109 -0.44952826 143.92906162 -0.46460924 149.29648018 -0.50431633 C154.3421286 -0.54115728 159.38703301 -0.54960066 164.43279076 -0.5363102 C166.28271587 -0.53636417 168.13267383 -0.54667133 169.98247528 -0.56806183 C172.51159365 -0.59574239 175.03799726 -0.58623818 177.56713867 -0.56762695 C178.29613579 -0.58442188 179.02513291 -0.60121681 179.77622086 -0.61852068 C185.05426071 -0.52168999 187.62666061 1.19312202 191.29349321 4.67994541 C192.93404741 6.38271342 194.53188027 8.08228654 196.03257751 9.91062927 C198.78823402 13.15549222 201.68907312 16.17089423 204.72007751 19.16062927 C208.28408054 22.6816925 211.62311919 26.29248935 214.87632751 30.09812927 C217.06804064 32.54987616 219.38074856 34.849485 221.72007751 37.16062927 C224.65125943 40.05654885 227.48410926 42.96305499 230.15757751 46.09812927 C233.45948853 49.96206769 237.0425419 53.51267974 240.65757751 57.07859802 C244.03292372 60.42589426 247.20364943 63.88906477 250.28257751 67.50828552 C251.83092777 69.33382409 251.83092777 69.33382409 254.15757751 71.53562927 C255.72007751 73.16062927 255.72007751 73.16062927 255.72007751 75.16062927 C256.38007751 75.16062927 257.04007751 75.16062927 257.72007751 75.16062927 C259.05992126 76.52391052 259.05992126 76.52391052 260.65757751 78.47312927 C263.68887039 82.04866262 266.88247451 85.36893553 270.22007751 88.66062927 C273.85901184 92.25506741 277.3316293 95.92346381 280.65757751 99.80906677 C288.28519161 108.50570254 296.3211662 116.83788646 304.55210876 124.96141052 C307.16525391 127.61222263 309.58372335 130.39498855 312.00132751 133.22312927 C314.44927935 135.98263861 317.07677099 138.5428267 319.72789001 141.10594177 C320.38531189 141.78398865 321.04273376 142.46203552 321.72007751 143.16062927 C322.57320998 143.95912261 323.42634245 144.75761595 324.30532742 145.58030605 C327.95454555 150.03208588 327.40920991 154.98630589 327.3482666 160.50048828 C327.35536099 161.64800424 327.36245538 162.7955202 327.36976475 163.97780937 C327.38430483 167.15473731 327.37646454 170.33069412 327.35904181 173.50757849 C327.34565974 176.93724262 327.36110836 180.36679449 327.37286377 183.79644775 C327.39124272 190.51379532 327.38272472 197.23085196 327.36477555 203.94819046 C327.35074158 209.41182046 327.34685847 214.87537157 327.35021782 220.33901787 C327.35069526 221.1171034 327.3511727 221.89518893 327.35166461 222.69685281 C327.35269098 224.27768312 327.35374634 225.85851341 327.35483038 227.43934368 C327.36339899 241.42047157 327.34672173 255.40145932 327.31700134 269.3825531 C327.28820237 282.93046466 327.28106178 296.47817403 327.29649353 310.02610779 C327.31328606 324.78883885 327.31725584 339.55147388 327.29978317 354.31420749 C327.29793888 355.89131509 327.29610415 357.4684227 327.2942791 359.04553032 C327.29336701 359.82141023 327.29245492 360.59729014 327.29151519 361.39668157 C327.28592574 366.84589755 327.28920244 372.29506645 327.29582405 377.74427986 C327.30358717 384.39695654 327.29669942 391.04943477 327.27164901 397.70207167 C327.2592177 401.09216598 327.2551022 404.48169789 327.26419067 407.87184143 C327.27293292 411.55884207 327.25684658 415.24495775 327.23474121 418.93188477 C327.24298198 419.98717253 327.25122275 421.04246029 327.25971323 422.12972647 C327.11277716 435.48975495 322.61489056 448.05574839 313.47007751 457.91062927 C297.52462377 472.6108849 277.4252139 471.75497943 257.05477703 471.65420985 C253.4645182 471.64090217 249.87430858 471.65098552 246.28404236 471.65797424 C239.27399047 471.66799471 232.2641291 471.65685726 225.25410093 471.63827364 C217.07951399 471.61738984 208.904967 471.61764901 200.73035841 471.6186188 C186.14347678 471.61961729 171.55668324 471.60136805 156.96983337 471.57225037 C142.83244727 471.54404475 128.69513862 471.52991061 114.557724 471.53123474 C113.24991676 471.53135461 113.24991676 471.53135461 111.91568918 471.5314769 C111.04528446 471.53155761 110.17487974 471.53163832 109.27809912 471.53172147 C93.14933208 471.53310232 77.02059776 471.52131922 60.89184134 471.50341504 C55.19969352 471.49739429 49.50755173 471.49525739 43.81540108 471.49435043 C36.88000461 471.49298386 29.94466338 471.48402175 23.00929035 471.46568482 C19.47395478 471.45647616 15.93868966 471.45034777 12.40334129 471.45287323 C8.56685343 471.4554809 4.73050641 471.44252837 0.89404297 471.42805481 C-0.77200742 471.43270062 -0.77200742 471.43270062 -2.47171539 471.43744028 C-11.53568545 471.38100003 -19.00920335 470.2595248 -27.02992249 465.84812927 C-28.09726624 465.27449646 -29.16460999 464.70086365 -30.26429749 464.10984802 C-33.38897799 462.09013873 -35.7244525 459.8498935 -38.27992249 457.16062927 C-38.96054749 456.70687927 -39.64117249 456.25312927 -40.34242249 455.78562927 C-43.1736116 453.41108356 -44.60588938 450.38541397 -46.27992249 447.16062927 C-46.63312561 446.55090271 -46.98632874 445.94117615 -47.35023499 445.31297302 C-53.00806655 435.10792127 -52.57421796 423.60594778 -52.55407715 412.253479 C-52.55853661 410.6590882 -52.56385296 409.0646996 -52.56994587 407.4703142 C-52.58405108 403.11363051 -52.58579059 398.75701841 -52.58534896 394.40031517 C-52.58700377 389.69189552 -52.60008249 384.98350481 -52.61154175 380.27510071 C-52.63433799 369.99194827 -52.6423063 359.70881654 -52.64736819 349.42564225 C-52.65063094 342.99894483 -52.65715683 336.57225336 -52.66436958 330.14555931 C-52.68392713 312.3339002 -52.70033674 294.5222466 -52.70324612 276.71057606 C-52.70343369 275.57202183 -52.70362126 274.4334676 -52.70381451 273.26041172 C-52.70418075 270.95254433 -52.70454445 268.64467694 -52.70490562 266.33680955 C-52.70508843 265.19126528 -52.70527124 264.045721 -52.70545959 262.86546326 C-52.70564014 261.71851282 -52.70582069 260.57156239 -52.70600671 259.38985588 C-52.7095481 240.8068154 -52.73657208 222.22389081 -52.77395748 203.64089052 C-52.81207833 184.5387292 -52.83140386 165.43662534 -52.83170563 146.33442515 C-52.83228928 135.61853023 -52.84072221 124.90277365 -52.86970329 114.18691444 C-52.89426751 105.06265372 -52.90146593 95.93858183 -52.88645577 86.81429694 C-52.87930797 82.16411322 -52.88005204 77.51430202 -52.90286636 72.86416054 C-52.92359977 68.59708323 -52.92072368 64.33066145 -52.89999152 60.06359013 C-52.89652391 58.52999202 -52.90128916 56.99634521 -52.91569596 55.46281085 C-53.02192174 43.36405386 -51.11228685 31.93704625 -45.27992249 21.16062927 C-44.61992249 21.16062927 -43.95992249 21.16062927 -43.27992249 21.16062927 C-42.94992249 19.84062927 -42.61992249 18.52062927 -42.27992249 17.16062927 C-41.61992249 17.16062927 -40.95992249 17.16062927 -40.27992249 17.16062927 C-40.27992249 16.50062927 -40.27992249 15.84062927 -40.27992249 15.16062927 C-28.37913362 4.42037833 -15.94914547 0.02589282 0 0 Z " fill="#FA0105" transform="translate(112.27992248535156,13.839370727539063)"/>
<path d="M0 0 C0.7941056 -0.00508782 1.58821119 -0.01017564 2.40638059 -0.01541764 C5.04618232 -0.03101445 7.68595694 -0.03963279 10.32579041 -0.04811096 C12.22692025 -0.05765909 14.12804839 -0.06755066 16.0291748 -0.07775879 C22.25034047 -0.10900952 28.47151901 -0.12938384 34.69273376 -0.14796448 C35.75250199 -0.1512618 36.81227022 -0.15455912 37.90415263 -0.15795636 C47.90202967 -0.18871152 57.89990989 -0.21540775 67.89782047 -0.23237514 C80.67142308 -0.2543122 93.44460715 -0.29638352 106.21804243 -0.36581272 C115.21016844 -0.41302855 124.20218134 -0.43730474 133.19442743 -0.44457203 C138.56198109 -0.44952826 143.92906162 -0.46460924 149.29648018 -0.50431633 C154.3421286 -0.54115728 159.38703301 -0.54960066 164.43279076 -0.5363102 C166.28271587 -0.53636417 168.13267383 -0.54667133 169.98247528 -0.56806183 C172.51159365 -0.59574239 175.03799726 -0.58623818 177.56713867 -0.56762695 C178.29613579 -0.58442188 179.02513291 -0.60121681 179.77622086 -0.61852068 C185.05426071 -0.52168999 187.62666061 1.19312202 191.29349321 4.67994541 C192.93404741 6.38271342 194.53188027 8.08228654 196.03257751 9.91062927 C198.78823402 13.15549222 201.68907312 16.17089423 204.72007751 19.16062927 C208.28408054 22.6816925 211.62311919 26.29248935 214.87632751 30.09812927 C217.06804064 32.54987616 219.38074856 34.849485 221.72007751 37.16062927 C224.65125943 40.05654885 227.48410926 42.96305499 230.15757751 46.09812927 C233.45948853 49.96206769 237.0425419 53.51267974 240.65757751 57.07859802 C244.03292372 60.42589426 247.20364943 63.88906477 250.28257751 67.50828552 C251.83092777 69.33382409 251.83092777 69.33382409 254.15757751 71.53562927 C255.72007751 73.16062927 255.72007751 73.16062927 255.72007751 75.16062927 C256.38007751 75.16062927 257.04007751 75.16062927 257.72007751 75.16062927 C259.05992126 76.52391052 259.05992126 76.52391052 260.65757751 78.47312927 C263.68887039 82.04866262 266.88247451 85.36893553 270.22007751 88.66062927 C273.85901184 92.25506741 277.3316293 95.92346381 280.65757751 99.80906677 C288.28519161 108.50570254 296.3211662 116.83788646 304.55210876 124.96141052 C307.16525391 127.61222263 309.58372335 130.39498855 312.00132751 133.22312927 C314.44927935 135.98263861 317.07677099 138.5428267 319.72789001 141.10594177 C320.38531189 141.78398865 321.04273376 142.46203552 321.72007751 143.16062927 C322.57320998 143.95912261 323.42634245 144.75761595 324.30532742 145.58030605 C327.95454555 150.03208588 327.40920991 154.98630589 327.3482666 160.50048828 C327.35536099 161.64800424 327.36245538 162.7955202 327.36976475 163.97780937 C327.38430483 167.15473731 327.37646454 170.33069412 327.35904181 173.50757849 C327.34565974 176.93724262 327.36110836 180.36679449 327.37286377 183.79644775 C327.39124272 190.51379532 327.38272472 197.23085196 327.36477555 203.94819046 C327.35074158 209.41182046 327.34685847 214.87537157 327.35021782 220.33901787 C327.35069526 221.1171034 327.3511727 221.89518893 327.35166461 222.69685281 C327.35269098 224.27768312 327.35374634 225.85851341 327.35483038 227.43934368 C327.36339899 241.42047157 327.34672173 255.40145932 327.31700134 269.3825531 C327.28820237 282.93046466 327.28106178 296.47817403 327.29649353 310.02610779 C327.31328606 324.78883885 327.31725584 339.55147388 327.29978317 354.31420749 C327.29793888 355.89131509 327.29610415 357.4684227 327.2942791 359.04553032 C327.29336701 359.82141023 327.29245492 360.59729014 327.29151519 361.39668157 C327.28592574 366.84589755 327.28920244 372.29506645 327.29582405 377.74427986 C327.30358717 384.39695654 327.29669942 391.04943477 327.27164901 397.70207167 C327.2592177 401.09216598 327.2551022 404.48169789 327.26419067 407.87184143 C327.27293292 411.55884207 327.25684658 415.24495775 327.23474121 418.93188477 C327.24298198 419.98717253 327.25122275 421.04246029 327.25971323 422.12972647 C327.11277716 435.48975495 322.61489056 448.05574839 313.47007751 457.91062927 C297.52462377 472.6108849 277.4252139 471.75497943 257.05477703 471.65420985 C253.4645182 471.64090217 249.87430858 471.65098552 246.28404236 471.65797424 C239.27399047 471.66799471 232.2641291 471.65685726 225.25410093 471.63827364 C217.07951399 471.61738984 208.904967 471.61764901 200.73035841 471.6186188 C186.14347678 471.61961729 171.55668324 471.60136805 156.96983337 471.57225037 C142.83244727 471.54404475 128.69513862 471.52991061 114.557724 471.53123474 C113.24991676 471.53135461 113.24991676 471.53135461 111.91568918 471.5314769 C111.04528446 471.53155761 110.17487974 471.53163832 109.27809912 471.53172147 C93.14933208 471.53310232 77.02059776 471.52131922 60.89184134 471.50341504 C55.19969352 471.49739429 49.50755173 471.49525739 43.81540108 471.49435043 C36.88000461 471.49298386 29.94466338 471.48402175 23.00929035 471.46568482 C19.47395478 471.45647616 15.93868966 471.45034777 12.40334129 471.45287323 C8.56685343 471.4554809 4.73050641 471.44252837 0.89404297 471.42805481 C-0.77200742 471.43270062 -0.77200742 471.43270062 -2.47171539 471.43744028 C-11.53568545 471.38100003 -19.00920335 470.2595248 -27.02992249 465.84812927 C-28.09726624 465.27449646 -29.16460999 464.70086365 -30.26429749 464.10984802 C-33.38897799 462.09013873 -35.7244525 459.8498935 -38.27992249 457.16062927 C-38.96054749 456.70687927 -39.64117249 456.25312927 -40.34242249 455.78562927 C-43.1736116 453.41108356 -44.60588938 450.38541397 -46.27992249 447.16062927 C-46.63312561 446.55090271 -46.98632874 445.94117615 -47.35023499 445.31297302 C-53.00806655 435.10792127 -52.57421796 423.60594778 -52.55407715 412.253479 C-52.55853661 410.6590882 -52.56385296 409.0646996 -52.56994587 407.4703142 C-52.58405108 403.11363051 -52.58579059 398.75701841 -52.58534896 394.40031517 C-52.58700377 389.69189552 -52.60008249 384.98350481 -52.61154175 380.27510071 C-52.63433799 369.99194827 -52.6423063 359.70881654 -52.64736819 349.42564225 C-52.65063094 342.99894483 -52.65715683 336.57225336 -52.66436958 330.14555931 C-52.68392713 312.3339002 -52.70033674 294.5222466 -52.70324612 276.71057606 C-52.70343369 275.57202183 -52.70362126 274.4334676 -52.70381451 273.26041172 C-52.70418075 270.95254433 -52.70454445 268.64467694 -52.70490562 266.33680955 C-52.70508843 265.19126528 -52.70527124 264.045721 -52.70545959 262.86546326 C-52.70564014 261.71851282 -52.70582069 260.57156239 -52.70600671 259.38985588 C-52.7095481 240.8068154 -52.73657208 222.22389081 -52.77395748 203.64089052 C-52.81207833 184.5387292 -52.83140386 165.43662534 -52.83170563 146.33442515 C-52.83228928 135.61853023 -52.84072221 124.90277365 -52.86970329 114.18691444 C-52.89426751 105.06265372 -52.90146593 95.93858183 -52.88645577 86.81429694 C-52.87930797 82.16411322 -52.88005204 77.51430202 -52.90286636 72.86416054 C-52.92359977 68.59708323 -52.92072368 64.33066145 -52.89999152 60.06359013 C-52.89652391 58.52999202 -52.90128916 56.99634521 -52.91569596 55.46281085 C-53.02192174 43.36405386 -51.11228685 31.93704625 -45.27992249 21.16062927 C-44.61992249 21.16062927 -43.95992249 21.16062927 -43.27992249 21.16062927 C-42.94992249 19.84062927 -42.61992249 18.52062927 -42.27992249 17.16062927 C-41.61992249 17.16062927 -40.95992249 17.16062927 -40.27992249 17.16062927 C-40.27992249 16.50062927 -40.27992249 15.84062927 -40.27992249 15.16062927 C-28.37913362 4.42037833 -15.94914547 0.02589282 0 0 Z M11.20762634 104.87962341 C9.83896357 106.05825029 8.42570621 107.18456277 7.00914001 108.30516052 C-0.80077326 114.63572162 -6.74396944 123.64133243 -12.95326233 131.49803162 C-14.07908995 132.90894183 -15.23322478 134.29719116 -16.39320374 135.68016052 C-18.67319765 138.67766806 -20.46551192 141.87260328 -22.27992249 145.16062927 C-23.00536543 146.41593811 -23.73327906 147.66982201 -24.46351624 148.92234802 C-34.54163316 166.39285096 -41.88813832 185.21370813 -45.27992249 205.16062927 C-45.48294983 206.34302185 -45.48294983 206.34302185 -45.69007874 207.54930115 C-54.02749774 257.46114733 -43.24449778 306.58576658 -14.27992249 348.16062927 C-10.8336656 352.68503144 -7.06764717 356.92212437 -3.27992249 361.16062927 C-2.07117345 362.57694127 -0.86278082 363.9935576 0.34507751 365.41062927 C8.34628961 374.42846596 17.07941969 381.97578546 26.72007751 389.16062927 C27.26712341 389.56845642 27.81416931 389.97628357 28.37779236 390.39646912 C36.72834487 396.55071192 45.46091508 401.54992504 54.72007751 406.16062927 C55.35236267 406.47806091 55.98464783 406.79549255 56.63609314 407.12254333 C65.10784056 411.3411101 73.59205433 414.6052159 82.72007751 417.16062927 C84.31397946 417.65102109 85.907715 418.14195395 87.50132751 418.63328552 C103.34475431 423.36932527 119.01902553 424.55819524 135.47007751 424.59812927 C136.28189484 424.6041214 137.09371216 424.61011353 137.93013 424.61628723 C155.08643883 424.7005301 171.30462388 422.36520214 187.72007751 417.28562927 C188.82996033 416.95949646 189.93984314 416.63336365 191.08335876 416.29734802 C201.18623609 413.24630281 210.45341449 409.02385729 219.64976501 403.87547302 C221.91453955 402.6105417 224.18616289 401.37844735 226.47789001 400.16453552 C240.02381643 392.89912815 251.5747292 383.72949406 262.72007751 373.16062927 C263.19155212 372.71638611 263.66302673 372.27214294 264.14878845 371.81443787 C271.86148958 364.50066956 278.47958762 356.75622579 284.72007751 348.16062927 C285.36847595 347.28406677 286.01687439 346.40750427 286.68492126 345.50437927 C290.29629939 340.51008829 293.38752375 335.37632171 296.25523376 329.92234802 C297.20411708 328.13338667 298.18932116 326.36303759 299.21617126 324.61766052 C303.54678354 317.18250541 306.33464042 309.45745148 309.00865173 301.31736755 C309.67782479 299.28872145 310.37041166 297.26957712 311.06773376 295.25047302 C312.42088494 291.25632997 313.59665139 287.22470554 314.72007751 283.16062927 C314.91907654 282.47307556 315.11807556 281.78552185 315.32310486 281.07713318 C318.93970844 268.05321347 319.11695047 254.95418305 319.15757751 241.53562927 C319.16375092 240.6718869 319.16992432 239.80814453 319.17628479 238.91822815 C319.25504204 221.75505041 317.09344445 205.47514956 312.28257751 188.97312927 C311.99576111 187.93350037 311.7089447 186.89387146 311.41343689 185.82273865 C309.9235236 180.58979154 308.23583021 175.81416245 305.66441345 171.01951599 C304.70738423 169.13564306 303.99244867 167.26686331 303.29429626 165.27391052 C301.51910315 160.37389935 299.05810531 155.89659875 296.53257751 151.34812927 C296.04353943 150.46520203 295.55450134 149.58227478 295.05064392 148.67259216 C291.36293292 142.11068911 287.44024986 136.03733786 282.72007751 130.16062927 C281.62566345 128.78197693 281.62566345 128.78197693 280.50914001 127.37547302 C273.45737033 118.62694647 266.35867529 110.3669988 257.72007751 103.16062927 C256.41103455 102.01980896 256.41103455 102.01980896 255.07554626 100.85594177 C240.94445961 88.71115244 224.77807884 77.9651596 207.34117126 71.26609802 C204.72007751 70.16062927 204.72007751 70.16062927 202.44664001 68.68016052 C198.68361655 66.58300275 194.82151845 65.68674182 190.65757751 64.66062927 C189.80703796 64.44559753 188.95649841 64.2305658 188.08018494 64.00901794 C186.38830091 63.58182968 184.6956883 63.15751498 183.00230408 62.73631287 C181.11850202 62.26113045 179.24231179 61.75587992 177.36851501 61.24266052 C164.39289929 57.72172898 151.24474659 56.82064832 137.86558533 56.89988708 C135.72044139 56.91062745 133.57613432 56.89989635 131.43101501 56.88719177 C85.87473842 56.84141995 44.98465616 75.14428947 11.20762634 104.87962341 Z " fill="#F01E1A" transform="translate(112.27992248535156,13.839370727539063)"/>
<path d="M0 0 C1.19372314 -0.00128164 1.19372314 -0.00128164 2.41156191 -0.00258917 C5.05080106 -0.00422278 7.68997518 0.00124236 10.32920837 0.00672913 C12.23198953 0.00701148 14.13477079 0.00685232 16.03755188 0.00628662 C21.18355864 0.00600054 26.32954194 0.01186674 31.47554326 0.01886058 C36.86071862 0.02512556 42.24589456 0.0257004 47.631073 0.02688599 C57.81995223 0.02999004 68.0088207 0.03819093 78.1976952 0.04823548 C89.80106742 0.05942539 101.40444016 0.06491431 113.00781643 0.06993091 C136.86877929 0.08037433 160.72972739 0.09870829 184.59068298 0.12025452 C184.92068298 20.58025452 185.25068298 41.04025452 185.59068298 62.12025452 C176.68068298 60.14025452 176.68068298 60.14025452 167.59068298 58.12025452 C157.19824305 56.52916391 147.22047456 55.79741862 136.7361908 55.85951233 C134.59104686 55.87025269 132.44673979 55.8595216 130.30162048 55.84681702 C83.66455466 55.79995929 38.96671595 75.13871549 5.88365173 107.79212952 C5.12697205 108.56041077 4.37029236 109.32869202 3.59068298 110.12025452 C3.05185486 110.62427795 2.51302673 111.12830139 1.95787048 111.64759827 C-3.75499348 117.04640427 -8.4083854 123.31337006 -13.17640686 129.53529358 C-14.25185525 130.91783041 -15.36836346 132.2682313 -16.49134827 133.61244202 C-18.78892355 136.61660359 -20.58744882 139.81871401 -22.40931702 143.12025452 C-23.13475996 144.37556335 -23.86267359 145.62944726 -24.59291077 146.88197327 C-34.67731481 164.36337497 -41.99251405 183.16856577 -45.40931702 203.12025452 C-45.61234436 204.24681458 -45.61234436 204.24681458 -45.81947327 205.39613342 C-48.13852514 218.56615437 -48.68024481 231.38111649 -48.38661194 244.74940491 C-48.36445618 245.93912903 -48.34230042 247.12885315 -48.31947327 248.35462952 C-48.2899054 249.41907288 -48.26033752 250.48351624 -48.22987366 251.58021545 C-48.40931702 254.12025452 -48.40931702 254.12025452 -50.40931702 256.12025452 C-50.43264229 227.45308922 -50.45029436 198.78592534 -50.46112919 170.11875248 C-50.46629294 156.80910912 -50.47333713 143.4994739 -50.48475647 130.18983459 C-50.49470091 118.59375407 -50.50116987 106.99767781 -50.50340551 95.40159315 C-50.50471303 89.25741927 -50.50780146 83.11325758 -50.51504707 76.9690876 C-50.5218035 71.19328042 -50.52393475 65.41749052 -50.5224247 59.64167976 C-50.5227012 57.51513577 -50.52470854 55.38859122 -50.52852249 53.26205063 C-50.53345385 50.37219868 -50.53231738 47.48241311 -50.52957153 44.59255981 C-50.5339408 43.31291614 -50.5339408 43.31291614 -50.53839833 42.00742108 C-50.52343823 36.23437573 -50.52343823 36.23437573 -49.40931702 35.12025452 C-49.30277133 33.76771623 -49.22440219 32.41292083 -49.15931702 31.05775452 C-48.65905852 26.02289483 -46.91198684 21.83551412 -43.40931702 18.12025452 C-42.41931702 18.12025452 -41.42931702 18.12025452 -40.40931702 18.12025452 C-40.24431702 17.43962952 -40.07931702 16.75900452 -39.90931702 16.05775452 C-35.92601937 8.25712996 -28.73259102 5.04469601 -20.85072327 2.06556702 C-14.01827991 0.18877781 -7.05246603 -0.02834504 0 0 Z " fill="#F01C18" transform="translate(113.40931701660156,15.879745483398438)"/>
<path d="M0 0 C3.10248564 1.87069151 6.11128112 3.81209458 9 6 C9.5274349 6.35660328 10.0548698 6.71320656 10.59828758 7.080616 C12.84430282 10.15611541 12.42613407 13.54268429 12.40786743 17.21014404 C12.41536967 18.05714725 12.4228719 18.90415045 12.43060148 19.77682042 C12.45199778 22.62573973 12.45181773 25.47424837 12.45166016 28.32324219 C12.46226959 30.36156864 12.47409893 32.39988905 12.48706055 34.4382019 C12.51789742 39.98378932 12.52898862 45.5292477 12.53470278 51.07491207 C12.5390521 54.5385962 12.54742333 58.0022467 12.55720139 61.46591949 C12.59096953 73.54695859 12.6080852 85.6278998 12.61083984 97.70898438 C12.61387406 108.97389019 12.65430755 120.23824696 12.71198809 131.50299335 C12.75974687 141.17019587 12.78057189 150.83721707 12.78063047 160.50453687 C12.78116898 166.28018832 12.79279896 172.05530262 12.83180618 177.83083344 C12.8676344 183.26474575 12.86997247 188.69765577 12.84663391 194.13162613 C12.84377057 196.12505441 12.85285391 198.11854136 12.87481308 200.11185074 C12.90296406 202.83639231 12.88782564 205.55743316 12.86196899 208.28192139 C12.88031253 209.06880238 12.89865606 209.85568338 12.91755545 210.66640925 C12.81865345 215.28112512 11.92010948 217.56415061 8.66097069 220.90034866 C0.88985825 227.92488503 -7.75548087 230.54270084 -18.12890625 230.3125 C-26.3792205 229.41450661 -33.40505823 226.13144304 -39 220 C-44.25998561 213.27890727 -46.25254687 206.37147508 -47 198 C-50.39138562 198.4239232 -52.86860039 199.4192582 -55.8125 201.0625 C-61.40028282 203.93501875 -66.18606749 203.7440194 -72.125 201.9375 C-77.48629885 199.7106613 -80.48055556 195.55542928 -83.375 190.6875 C-84.69938381 184.99264963 -84.74363724 179.79712332 -82.5 174.375 C-81.7575 173.199375 -81.7575 173.199375 -81 172 C-77.37 172.33 -73.74 172.66 -70 173 C-70 171.68 -70 170.36 -70 169 C-70.87011719 168.85304688 -70.87011719 168.85304688 -71.7578125 168.703125 C-79.62246861 167.19767928 -84.39982438 164.35947337 -89.01953125 157.78125 C-91.69346557 152.9234251 -91.37462005 147.39278633 -91 142 C-90 138.875 -90 138.875 -89 137 C-86.43548915 138.09907608 -84.90445054 139.0984449 -82.9375 141.125 C-81.09006673 143.34771071 -81.09006673 143.34771071 -78 143 C-78.51721385 138.99331674 -79.45479903 137.13348533 -82.3125 134.3125 C-88.96161932 126.9656336 -90.82902364 119.37492425 -90.5078125 109.53515625 C-89.20025793 100.43256483 -84.67162638 93.71925671 -77.5390625 88.109375 C-77.03117188 87.74328125 -76.52328125 87.3771875 -76 87 C-76.53600236 83.45507531 -77.28667679 81.19312664 -79.5 78.375 C-83.8767288 72.75141241 -83.47608855 66.88497282 -83 60 C-81.25646481 54.22453968 -76.8653801 50.38989055 -72 47 C-65.26379416 44.57660887 -56.91253552 45.7711048 -50 47 C-50 45.68 -50 44.36 -50 43 C-53.3 42.34 -56.6 41.68 -60 41 C-60.61149748 34.15122822 -59.38354365 30.30695358 -55 25 C-49.68014373 19.32851144 -44.30596441 15.50378223 -36.44921875 14.7578125 C-31.76110662 14.63279618 -28.30130902 15.03368731 -24 17 C-21.29113059 17.16798262 -21.29113059 17.16798262 -19 17 C-19 16.01 -19 15.02 -19 14 C-25.95068039 11.20919651 -32.54508438 10.36580804 -40 10 C-38.54808944 6.49379046 -36.73777185 4.68188507 -33.75 2.375 C-33.00234375 1.78460938 -32.2546875 1.19421875 -31.484375 0.5859375 C-22.82704133 -4.9405994 -8.96648586 -5.14002374 0 0 Z " fill="#FEFAFA" transform="translate(239,141)"/>
<path d="M0 0 C0.7941056 -0.00508782 1.58821119 -0.01017564 2.40638059 -0.01541764 C5.04618232 -0.03101445 7.68595694 -0.03963279 10.32579041 -0.04811096 C12.22692025 -0.05765909 14.12804839 -0.06755066 16.0291748 -0.07775879 C22.25034047 -0.10900952 28.47151901 -0.12938384 34.69273376 -0.14796448 C35.75250199 -0.1512618 36.81227022 -0.15455912 37.90415263 -0.15795636 C47.90202967 -0.18871152 57.89990989 -0.21540775 67.89782047 -0.23237514 C80.67142308 -0.2543122 93.44460715 -0.29638352 106.21804243 -0.36581272 C115.21016844 -0.41302855 124.20218134 -0.43730474 133.19442743 -0.44457203 C138.56198109 -0.44952826 143.92906162 -0.46460924 149.29648018 -0.50431633 C154.3421286 -0.54115728 159.38703301 -0.54960066 164.43279076 -0.5363102 C166.28271587 -0.53636417 168.13267383 -0.54667133 169.98247528 -0.56806183 C172.51159365 -0.59574239 175.03799726 -0.58623818 177.56713867 -0.56762695 C178.29613579 -0.58442188 179.02513291 -0.60121681 179.77622086 -0.61852068 C185.05426071 -0.52168999 187.62666061 1.19312202 191.29349321 4.67994541 C192.93404741 6.38271342 194.53188027 8.08228654 196.03257751 9.91062927 C198.78823402 13.15549222 201.68907312 16.17089423 204.72007751 19.16062927 C208.28408054 22.6816925 211.62311919 26.29248935 214.87632751 30.09812927 C217.06804064 32.54987616 219.38074856 34.849485 221.72007751 37.16062927 C224.65125943 40.05654885 227.48410926 42.96305499 230.15757751 46.09812927 C233.45948853 49.96206769 237.0425419 53.51267974 240.65757751 57.07859802 C244.03292372 60.42589426 247.20364943 63.88906477 250.28257751 67.50828552 C251.83092777 69.33382409 251.83092777 69.33382409 254.15757751 71.53562927 C255.72007751 73.16062927 255.72007751 73.16062927 255.72007751 75.16062927 C256.38007751 75.16062927 257.04007751 75.16062927 257.72007751 75.16062927 C259.05992126 76.52391052 259.05992126 76.52391052 260.65757751 78.47312927 C263.68887039 82.04866262 266.88247451 85.36893553 270.22007751 88.66062927 C273.85901184 92.25506741 277.3316293 95.92346381 280.65757751 99.80906677 C288.28519161 108.50570254 296.3211662 116.83788646 304.55210876 124.96141052 C307.16525391 127.61222263 309.58372335 130.39498855 312.00132751 133.22312927 C314.44927935 135.98263861 317.07677099 138.5428267 319.72789001 141.10594177 C320.38531189 141.78398865 321.04273376 142.46203552 321.72007751 143.16062927 C322.57376513 143.95731836 323.42745275 144.75400745 324.3070097 145.57483864 C327.97267929 150.04715222 327.39601046 155.05274981 327.3213501 160.58796692 C327.32562222 161.74465523 327.32989435 162.90134355 327.33429593 164.09308302 C327.34109888 167.29514953 327.32550938 170.49619973 327.30040562 173.6981461 C327.27878641 177.15410487 327.28612206 180.6100174 327.28991699 184.06602478 C327.29253708 190.05088362 327.27686747 196.03546964 327.2487278 202.02025986 C327.20806944 210.67318274 327.19506822 219.32597387 327.18878784 227.97898193 C327.1778483 242.01828419 327.1445834 256.05744108 327.09727478 270.09666443 C327.05137035 283.73337579 327.01598278 297.37004764 326.99473572 311.00682068 C326.9934221 311.84757709 326.99210848 312.6883335 326.99075506 313.55456738 C326.98422981 317.77245142 326.97791128 321.99033574 326.97169554 326.20822024 C326.91987315 361.19246021 326.83181718 396.17653132 326.72007751 431.16062927 C326.39007751 431.16062927 326.06007751 431.16062927 325.72007751 431.16062927 C325.72007751 338.43062927 325.72007751 245.70062927 325.72007751 150.16062927 C315.49007751 150.16062927 305.26007751 150.16062927 294.72007751 150.16062927 C288.47909848 142.94883128 288.47909848 142.94883128 287.47007751 139.53172302 C285.64592269 134.45031174 282.57280986 130.79066656 279.09507751 126.72312927 C278.53006531 126.04645203 277.9650531 125.36977478 277.38291931 124.67259216 C275.83824566 122.82688644 274.28009005 120.99336381 272.72007751 119.16062927 C272.02527283 118.32273865 271.33046814 117.48484802 270.61460876 116.62156677 C266.69569431 111.97626314 262.37483184 108.05558693 257.72007751 104.16062927 C256.84609314 103.39879333 255.97210876 102.6369574 255.07164001 101.85203552 C240.9403175 89.70970613 224.7768874 78.96470186 207.34117126 72.26609802 C204.72007751 71.16062927 204.72007751 71.16062927 202.30210876 69.62156677 C199.22358947 67.87971168 196.43243252 67.28355023 192.97007751 66.59812927 C190.87323283 66.18205135 188.78401906 65.71742706 186.72007751 65.16062927 C185.36863097 62.45773619 185.60032586 60.35993121 185.60655212 57.33396912 C185.60662766 56.11285431 185.60670319 54.8917395 185.60678101 53.63362122 C185.611888 52.29626932 185.617104 50.95891784 185.62242126 49.62156677 C185.62428612 48.25679069 185.6257097 46.89201393 185.62670898 45.52723694 C185.63052889 41.93347834 185.64035468 38.3397601 185.65141296 34.74601746 C185.6616384 31.07953945 185.66620904 27.41305493 185.67124939 23.74656677 C185.68197742 16.55123587 185.69904752 9.35593822 185.72007751 2.16062927 C160.71141083 2.26792644 135.702774 2.38069824 110.69416142 2.49996853 C99.08196057 2.55522175 87.46975666 2.60869064 75.85752869 2.65794373 C65.73507862 2.70088248 55.61265046 2.74718467 45.49023432 2.79750782 C40.13165036 2.82403081 34.77307053 2.84888165 29.41446114 2.86970329 C24.3674563 2.88936733 19.32049283 2.91353956 14.27352524 2.94112015 C12.42448495 2.95043908 10.57543561 2.95813258 8.7263813 2.96404839 C6.19400753 2.97239792 3.66173184 2.98669792 1.12939453 3.00241089 C0.40465708 3.003389 -0.32008036 3.0043671 -1.06677955 3.00537485 C-13.99982189 3.10795338 -25.98666827 5.32341498 -35.79164124 14.41453552 C-37.37173479 16.12489714 -37.37173479 16.12489714 -38.35414124 18.32859802 C-39.27992249 20.16062927 -39.27992249 20.16062927 -41.40492249 20.91062927 C-42.33304749 21.03437927 -42.33304749 21.03437927 -43.27992249 21.16062927 C-42.94992249 19.84062927 -42.61992249 18.52062927 -42.27992249 17.16062927 C-41.61992249 17.16062927 -40.95992249 17.16062927 -40.27992249 17.16062927 C-40.27992249 16.50062927 -40.27992249 15.84062927 -40.27992249 15.16062927 C-28.37913362 4.42037833 -15.94914547 0.02589282 0 0 Z " fill="#F77272" transform="translate(112.27992248535156,13.839370727539063)"/>
<path d="M0 0 C4.48395303 -0.12379245 8.96699602 -0.21442571 13.45214844 -0.2746582 C14.9770643 -0.29977103 16.50186015 -0.33386883 18.02636719 -0.37719727 C20.22100426 -0.43800044 22.4140481 -0.46623887 24.609375 -0.48828125 C25.92905273 -0.51446533 27.24873047 -0.54064941 28.60839844 -0.56762695 C32 0 32 0 34.36425781 2.3190918 C36.28514664 5.46734258 37.70756717 8.68496434 39 12.125 C39.38019287 13.10871582 39.38019287 13.10871582 39.76806641 14.11230469 C40.52146693 16.07143232 41.2615565 18.0351948 42 20 C42.42023438 21.09570312 42.84046875 22.19140625 43.2734375 23.3203125 C46 30.57180851 46 30.57180851 46 34 C46.556875 33.94199219 47.11375 33.88398438 47.6875 33.82421875 C54.12416219 33.44367284 58.08732142 34.8192329 63 39 C66.3015136 42.54912712 67.25813942 45.20238063 67.4375 49.9375 C67.17879753 55.32982956 66.20893706 59.73993014 62.3125 63.7265625 C56.78905488 68.58259134 53.37978651 69.36677437 45.98046875 69.26953125 C41.88274528 68.89896386 39.94331936 67.87153109 37 65 C32.72623 59.0914546 30.23302427 54.46058207 31 47 C32.41954392 43.18964526 33.73101917 41.24452802 36.75 38.5 C37.4925 37.675 38.235 36.85 39 36 C38.64460294 31.91240019 37.51627285 28.23645344 36.15234375 24.3828125 C35.82999756 23.46387207 35.50765137 22.54493164 35.17553711 21.59814453 C34.56270874 19.87893799 34.56270874 19.87893799 33.9375 18.125 C31.9884375 12.618125 31.9884375 12.618125 30 7 C15.15 6.505 15.15 6.505 0 6 C0 4.02 0 2.04 0 0 Z " fill="#FEF3F3" transform="translate(256,291)"/>
<path d="M0 0 C4.38018064 2.68426455 8.93783878 6.08458874 10.75 11.05859375 C11.58523985 17.54475321 11.3090417 22.23586284 8 28 C4.44332223 31.73325042 1.11694532 34.86541687 -4.26171875 35.09765625 C-5.06222656 35.08605469 -5.86273438 35.07445312 -6.6875 35.0625 C-7.89986328 35.04896484 -7.89986328 35.04896484 -9.13671875 35.03515625 C-9.75160156 35.02355469 -10.36648438 35.01195312 -11 35 C-11.09539062 35.78375 -11.19078125 36.5675 -11.2890625 37.375 C-12.21424105 42.09239391 -13.76558538 46.47767792 -15.375 51 C-15.67921875 51.8765625 -15.9834375 52.753125 -16.296875 53.65625 C-20.45479651 65.45479651 -20.45479651 65.45479651 -24 69 C-26.43744897 69.17488254 -28.7593608 69.23177405 -31.1953125 69.1953125 C-31.90275604 69.1924826 -32.61019958 69.18965271 -33.33908081 69.18673706 C-35.6012251 69.17553137 -37.86297515 69.15042679 -40.125 69.125 C-41.65754637 69.11497067 -43.19009894 69.10584474 -44.72265625 69.09765625 C-48.48192301 69.07559086 -52.24089464 69.04105896 -56 69 C-56 67.02 -56 65.04 -56 63 C-41.15 62.505 -41.15 62.505 -26 62 C-24.1587673 56.43710327 -24.1587673 56.43710327 -22.32104492 50.87304688 C-22.08490479 50.16212891 -21.84876465 49.45121094 -21.60546875 48.71875 C-21.34427246 47.93113281 -21.08307617 47.14351562 -20.81396484 46.33203125 C-20.0253572 44.07264905 -19.14109493 41.87192024 -18.23828125 39.65625 C-17.01593062 36.04703804 -16.82154685 35.35119912 -18 32 C-18.98817517 30.64228563 -20.0125734 29.31054668 -21.0625 28 C-24.82203161 22.51923704 -25.07909943 17.46537353 -24 11 C-19.11202701 0.86198195 -10.6117195 -1.87965435 0 0 Z " fill="#FEF3F3" transform="translate(312,149)"/>
<path d="M0 0 C5.43888192 2.46117003 8.47936248 5.67521811 10.97265625 11.13671875 C12.28791287 17.11515795 10.76350614 22.17043735 7.97265625 27.46484375 C5.73277033 30.53135424 3.0773403 31.6796891 -0.33984375 33.26171875 C-1.32984375 33.75671875 -1.32984375 33.75671875 -2.33984375 34.26171875 C-7.20370639 34.67261481 -12.12311158 34.92491801 -16.33984375 32.26171875 C-20.21638708 28.48500057 -23.00895581 25.58527051 -24.33984375 20.26171875 C-42.48984375 19.93171875 -60.63984375 19.60171875 -79.33984375 19.26171875 C-79.33984375 17.28171875 -79.33984375 15.30171875 -79.33984375 13.26171875 C-52.11484375 12.76671875 -52.11484375 12.76671875 -24.33984375 12.26171875 C-23.34984375 9.95171875 -22.35984375 7.64171875 -21.33984375 5.26171875 C-15.72695191 -1.50287495 -8.15987117 -2.5746505 0 0 Z " fill="#FEF3F4" transform="translate(336.33984375,237.73828125)"/>
<path d="M0 0 C0.66 0 1.32 0 2 0 C0.125 4.75 0.125 4.75 -1 7 C-1.30791869 9.33077343 -1.50895274 11.66241896 -1.71875 14.00390625 C-2 16 -2 16 -3 17 C-3.09881888 19.06764633 -3.12555715 21.13873766 -3.12584114 23.20874405 C-3.12729458 23.86784562 -3.12874802 24.5269472 -3.13024551 25.20602155 C-3.13393114 27.44224078 -3.13040727 29.67839294 -3.12698364 31.91461182 C-3.12813448 33.52313197 -3.12972174 35.13165186 -3.13171089 36.74017119 C-3.13590995 41.18223786 -3.13381088 45.62428321 -3.13072467 50.06634998 C-3.1284729 54.84917665 -3.13194921 59.63199951 -3.13470459 64.41482544 C-3.13916491 73.79645314 -3.13818431 83.17807286 -3.13529195 92.55970088 C-3.13303732 100.18780896 -3.13272566 107.81591481 -3.13381577 115.44402313 C-3.133969 116.52807585 -3.13412223 117.61212857 -3.13428011 118.72903137 C-3.13459983 120.93113933 -3.13492404 123.13324729 -3.1352527 125.33535525 C-3.13810867 146.0176511 -3.13481948 166.69994252 -3.12945233 187.38223764 C-3.12499175 205.11941065 -3.12575384 222.85657711 -3.13037109 240.59375 C-3.13572785 261.18136826 -3.13782599 281.76898262 -3.13475883 302.35660148 C-3.13444028 304.55446354 -3.13412591 306.75232561 -3.13381577 308.95018768 C-3.13366149 310.03159466 -3.13350721 311.11300164 -3.13334826 312.22717853 C-3.13248585 319.83787756 -3.13394022 327.44857412 -3.13629532 335.05927277 C-3.13910606 344.34703613 -3.1383285 353.63479105 -3.13301457 362.92255345 C-3.13039359 367.65924889 -3.12934515 372.39593026 -3.13266373 377.13262558 C-3.13566027 381.47560153 -3.1339783 385.8185505 -3.12868617 390.16152403 C-3.12757616 391.72631776 -3.12812145 393.29111381 -3.13056196 394.85590604 C-3.14364409 403.94689839 -2.85643358 412.94415274 -2 422 C-1.34 422 -0.68 422 0 422 C0.495 423.485 0.495 423.485 1 425 C1.66 425.33 2.32 425.66 3 426 C3.73075648 428.3140622 4.40138258 430.64828869 5 433 C4.34 433 3.68 433 3 433 C1.64498167 430.67711144 0.31573038 428.34504327 -1 426 C-1.53753906 425.07960938 -1.53753906 425.07960938 -2.0859375 424.140625 C-7.70598026 413.91468253 -7.2943084 402.45260316 -7.27415466 391.09284973 C-7.27861412 389.49845893 -7.28393047 387.90407033 -7.29002339 386.30968493 C-7.30412859 381.95300124 -7.30586811 377.59638914 -7.30542648 373.23968589 C-7.30708129 368.53126625 -7.32016001 363.82287553 -7.33161926 359.11447144 C-7.35441551 348.831319 -7.36238382 338.54818726 -7.36744571 328.26501298 C-7.37070846 321.83831556 -7.37723435 315.41162409 -7.3844471 308.98493004 C-7.40400464 291.17327093 -7.42041426 273.36161733 -7.42332363 255.54994678 C-7.4235112 254.41139255 -7.42369877 253.27283832 -7.42389202 252.09978245 C-7.42425826 249.79191506 -7.42462196 247.48404767 -7.42498314 245.17618028 C-7.42516595 244.030636 -7.42534876 242.88509173 -7.42553711 241.70483398 C-7.42571766 240.55788355 -7.42589821 239.41093312 -7.42608423 238.22922661 C-7.42962561 219.64618613 -7.45664959 201.06326154 -7.494035 182.48026124 C-7.53215585 163.37809992 -7.55148138 144.27599607 -7.55178314 125.17379588 C-7.5523668 114.45790096 -7.56079973 103.74214438 -7.58978081 93.02628517 C-7.61434502 83.90202445 -7.62154345 74.77795256 -7.60653328 65.65366767 C-7.59938549 61.00348395 -7.60012956 56.35367274 -7.62294388 51.70353127 C-7.64367728 47.43645396 -7.64080119 43.17003218 -7.62006903 38.90296086 C-7.61660143 37.36936275 -7.62136667 35.83571594 -7.63577347 34.30218158 C-7.74199925 22.20342459 -5.83236436 10.77641697 0 0 Z " fill="#F89B99" transform="translate(67,35)"/>
<path d="M0 0 C1.67542976 0.28604898 3.34385343 0.61781233 5 1 C4.835 1.639375 4.67 2.27875 4.5 2.9375 C3.58034268 8.57040108 3.08446396 13.16892792 5.6875 18.375 C8.75045499 21.85186782 11.26848131 23.78586272 15.9375 24.36328125 C16.948125 24.34652344 17.95875 24.32976562 19 24.3125 C20.010625 24.30863281 21.02125 24.30476563 22.0625 24.30078125 C25.31590604 23.96765324 28.60388839 23.39611161 31 21 C32.66617115 20.95936168 34.33388095 20.957279 36 21 C36 22.65 36 24.3 36 26 C27.68406649 30.50379378 20.66942945 32.70365687 11.30859375 30.3125 C9.16598148 29.61506127 7.08063568 28.8630785 5 28 C4.50267683 38.41884156 4.50267683 38.41884156 8 48 C8.33 48.33 8.66 48.66 9 49 C9.04080783 50.99958364 9.04254356 53.00045254 9 55 C6.09734017 54.68619894 4.44708463 54.43052594 2.3125 52.375 C-0.7158208 46.89518141 -1.27479681 41.4244048 -1.25 35.25 C-1.25515625 33.95578125 -1.2603125 32.6615625 -1.265625 31.328125 C-1 28 -1 28 1 25 C0.70565942 22.25282128 -0.35733243 20.25674855 -1.5625 17.75 C-3.72696096 12.80569212 -3.71569898 8.24252347 -2.0625 3.0625 C-1 1 -1 1 0 0 Z " fill="#FA1215" transform="translate(190,227)"/>
<path d="M0 0 C0.7941056 -0.00508782 1.58821119 -0.01017564 2.40638059 -0.01541764 C5.04618232 -0.03101445 7.68595694 -0.03963279 10.32579041 -0.04811096 C12.22692025 -0.05765909 14.12804839 -0.06755066 16.0291748 -0.07775879 C22.25034047 -0.10900952 28.47151901 -0.12938384 34.69273376 -0.14796448 C35.75250199 -0.1512618 36.81227022 -0.15455912 37.90415263 -0.15795636 C47.90202967 -0.18871152 57.89990989 -0.21540775 67.89782047 -0.23237514 C80.67142308 -0.2543122 93.44460715 -0.29638352 106.21804243 -0.36581272 C115.21016844 -0.41302855 124.20218134 -0.43730474 133.19442743 -0.44457203 C138.56198109 -0.44952826 143.92906162 -0.46460924 149.29648018 -0.50431633 C154.3421286 -0.54115728 159.38703301 -0.54960066 164.43279076 -0.5363102 C166.28271587 -0.53636417 168.13267383 -0.54667133 169.98247528 -0.56806183 C172.51159365 -0.59574239 175.03799726 -0.58623818 177.56713867 -0.56762695 C178.29613579 -0.58442188 179.02513291 -0.60121681 179.77622086 -0.61852068 C185.77838638 -0.50840521 188.74268015 2.04813843 192.72007751 6.16062927 C192.39007751 6.82062927 192.06007751 7.48062927 191.72007751 8.16062927 C190.482206 6.94193933 190.482206 6.94193933 189.21932697 5.69862938 C185.61321471 2.71485355 182.29502714 2.46553842 177.73208618 2.55262756 C176.94518412 2.54764987 176.15828206 2.54267218 175.34753448 2.53754365 C172.71944206 2.52699432 170.0929266 2.55209257 167.46495056 2.57713318 C165.5772131 2.5769064 163.68947482 2.57449097 161.80174255 2.5700531 C156.6795301 2.56434779 151.55788709 2.58963941 146.43578315 2.62072802 C141.07083623 2.64829591 135.70588805 2.64826958 130.34088135 2.65144348 C121.32826406 2.6606471 112.31585901 2.68817379 103.30332947 2.72850037 C90.60920305 2.78524977 77.91518386 2.80764457 65.22095048 2.82378507 C56.41451558 2.83626093 47.60809676 2.85692611 38.80168176 2.87916517 C36.67023784 2.88452006 34.53879336 2.88965719 32.40734839 2.8945775 C26.32611886 2.90892803 20.24494928 2.92843089 14.16376495 2.95605469 C12.32439343 2.96374189 10.48501432 2.96981836 8.64563179 2.97413254 C6.12671697 2.98040448 3.60790224 2.99278442 1.08901978 3.00672913 C0.36837505 3.00722688 -0.35226968 3.00772464 -1.09475213 3.00823748 C-14.01672564 3.10375345 -25.99753318 5.33348887 -35.79164124 14.41453552 C-37.37173479 16.12489714 -37.37173479 16.12489714 -38.35414124 18.32859802 C-39.27992249 20.16062927 -39.27992249 20.16062927 -41.40492249 20.91062927 C-42.33304749 21.03437927 -42.33304749 21.03437927 -43.27992249 21.16062927 C-42.94992249 19.84062927 -42.61992249 18.52062927 -42.27992249 17.16062927 C-41.61992249 17.16062927 -40.95992249 17.16062927 -40.27992249 17.16062927 C-40.27992249 16.50062927 -40.27992249 15.84062927 -40.27992249 15.16062927 C-28.37913362 4.42037833 -15.94914547 0.02589282 0 0 Z " fill="#FCC9C8" transform="translate(112.27992248535156,13.839370727539063)"/>
<path d="M0 0 C-0.3125 1.9375 -0.3125 1.9375 -1 4 C-4 5 -4 5 -5.69140625 4.22265625 C-6.30886719 3.83980469 -6.92632812 3.45695312 -7.5625 3.0625 C-12.37978911 0.50747373 -16.64130143 0.2704965 -22 1 C-27.14530601 2.74746242 -30.06999828 5.43264437 -33 10 C-33.28243771 12.96559591 -33.34262924 15.12080916 -33 18 C-32.92007813 18.68191406 -32.84015625 19.36382812 -32.7578125 20.06640625 C-32.53791606 21.71562954 -32.27353007 23.35881957 -32 25 C-35.16842693 24.74310052 -36.60962957 24.41729253 -38.8125 22.0625 C-40.54412519 17.59672978 -40.87196237 13.72012689 -40 9 C-37.08928205 2.95466272 -31.72953448 -1.64810635 -26 -5 C-16.43201859 -8.14458708 -8.0597526 -5.3731684 0 0 Z " fill="#FA1A1C" transform="translate(227,299)"/>
<path d="M0 0 C2.15584152 1.44861617 4.14978959 2.93175741 6.08984375 4.65625 C5.75984375 5.97625 5.42984375 7.29625 5.08984375 8.65625 C2.49348875 8.21116057 0.2272553 7.71729561 -2.1875 6.64453125 C-7.72340063 4.63508669 -14.76030862 4.3319422 -20.2421875 6.63671875 C-23.34007347 8.75632494 -25.93882725 10.98678489 -26.91015625 14.65625 C-27.18090171 19.43941975 -26.68070785 23.93662144 -25.91015625 28.65625 C-27.23015625 28.98625 -28.55015625 29.31625 -29.91015625 29.65625 C-33.61817725 25.25297506 -34.61097723 21.95309313 -34.359375 16.18359375 C-33.36855103 10.60913193 -30.09602648 6.51295446 -25.97265625 2.78125 C-18.71572633 -2.25417076 -8.15498474 -3.76552315 0 0 Z " fill="#FA181A" transform="translate(233.91015625,174.34375)"/>
<path d="M0 0 C1.65 0 3.3 0 5 0 C4.93039063 1.64548828 4.93039063 1.64548828 4.859375 3.32421875 C4.8218421 4.7786185 4.78544357 6.23304783 4.75 7.6875 C4.71648437 8.40873047 4.68296875 9.12996094 4.6484375 9.87304688 C4.57740147 13.76226974 4.70789758 15.55005342 6.88671875 18.90625 C10.90898966 22.8913465 13.64059716 24.19481524 19.3125 24.375 C24.50512458 24.24903337 28.24597063 23.00169658 33 21 C34.32 21 35.64 21 37 21 C37.0625 23.25 37.0625 23.25 36 26 C33.13713032 27.69982887 30.11140098 28.83536551 27 30 C26.34 30.33 25.68 30.66 25 31 C17.15298436 31.846566 11.14422356 30.23723599 4.75 25.6875 C-0.39283426 20.66154834 -2.24511387 17.63238738 -2.375 10.375 C-2.32798734 6.3413141 -2.11818757 3.47382761 0 0 Z " fill="#FA1518" transform="translate(207,320)"/>
<path d="M0 0 C0.33 0 0.66 0 1 0 C1.00423194 0.93332877 1.00846388 1.86665754 1.01282406 2.828269 C1.11671349 25.69737597 1.22554051 48.56645555 1.33933926 71.4355154 C1.39426429 82.49549369 1.4476721 93.55547515 1.49731445 104.61547852 C1.54066278 114.27230837 1.58705495 123.92911837 1.63687855 133.58591706 C1.66307981 138.68369465 1.68790943 143.78146935 1.70907402 148.87927055 C1.78831641 167.73910927 1.89425894 186.59295848 2.45727539 205.44555664 C2.49530746 206.74140655 2.53333952 208.03725645 2.57252407 209.37237453 C2.83398144 217.26948318 3.32596303 225.12749577 4 233 C4.66 233 5.32 233 6 233 C6.33 233.99 6.66 234.98 7 236 C7.66 236.33 8.32 236.66 9 237 C9.73075648 239.3140622 10.40138258 241.64828869 11 244 C10.34 244 9.68 244 9 244 C-0.12714558 228.35346472 -0.12714558 228.35346472 -0.12304783 220.9939003 C-0.12503888 220.2021721 -0.12702993 219.4104439 -0.12908131 218.59472394 C-0.12616847 217.73091194 -0.12325563 216.86709994 -0.12025452 215.97711182 C-0.12110894 215.05489484 -0.12196337 214.13267786 -0.12284368 213.18251491 C-0.12449369 210.08552417 -0.1189849 206.98858733 -0.11352539 203.89160156 C-0.11324339 201.67429099 -0.11340151 199.45698032 -0.1139679 197.2396698 C-0.11425537 191.21323121 -0.10836672 185.18681243 -0.10139394 179.16037846 C-0.09515206 172.86495628 -0.09455594 166.56953368 -0.09336853 160.27410889 C-0.09061135 149.70535952 -0.08436076 139.13661667 -0.07543945 128.56787109 C-0.06626012 117.68212928 -0.05918183 106.79638944 -0.05493164 95.91064453 C-0.05466892 95.23962142 -0.05440619 94.56859831 -0.05413551 93.87724116 C-0.05283047 90.51090768 -0.05156676 87.14457419 -0.05032361 83.77824068 C-0.03986479 55.85215538 -0.0222701 27.9260782 0 0 Z " fill="#F6817E" transform="translate(61,224)"/>
<path d="M0 0 C0.84734774 0.06980544 1.69469547 0.13961088 2.56772041 0.21153164 C11.08187972 0.87210678 19.53599624 1.16508978 28.07373047 1.20532227 C29.41568275 1.21493565 30.75763223 1.22494754 32.09957886 1.23532104 C35.69365828 1.26200231 39.28775034 1.28320728 42.8818717 1.30332303 C46.65614376 1.3254137 50.43037854 1.35268783 54.20462036 1.37937927 C61.3298262 1.42899794 68.45505307 1.47404913 75.5802995 1.51740164 C83.70141328 1.56704006 91.82248961 1.62185822 99.94356704 1.67708123 C116.62901005 1.79042711 133.31448758 1.89736654 150 2 C150 2.33 150 2.66 150 3 C132.03218926 3.17756157 114.06430969 3.34320474 96.09626102 3.49477577 C87.75283212 3.56543344 79.40947135 3.63994701 71.06616211 3.72363281 C63.79162287 3.79658866 56.51706016 3.86221313 49.24237722 3.91914403 C45.39277755 3.94952372 41.54328746 3.98349961 37.69380379 4.02626419 C34.06515966 4.06645936 30.43656225 4.09679719 26.80776978 4.11981392 C24.85208208 4.13471603 22.89648063 4.15985598 20.94090271 4.18537903 C14.30006468 4.21720738 8.38615408 3.89455084 2 2 C1.34 1.34 0.68 0.68 0 0 Z " fill="#F12A26" transform="translate(90,481)"/>
<path d="M0 0 C0.66 0 1.32 0 2 0 C0.125 4.75 0.125 4.75 -1 7 C-1.30791869 9.33077343 -1.50895274 11.66241896 -1.71875 14.00390625 C-2 16 -2 16 -3 17 C-3.12497615 19.49399065 -3.1860288 21.96168329 -3.20532227 24.45727539 C-3.21522186 25.23770706 -3.22512146 26.01813873 -3.23532104 26.82221985 C-3.26702775 29.41400063 -3.2917295 32.00579977 -3.31640625 34.59765625 C-3.33696787 36.38985178 -3.35796413 38.18204237 -3.37937927 39.97422791 C-3.43468176 44.7006532 -3.48405483 49.42712285 -3.53222656 54.15362549 C-3.58238205 58.97290005 -3.63809911 63.79210988 -3.69335938 68.61132812 C-3.80104089 78.07416351 -3.90246351 87.53705499 -4 97 C-4.33 97 -4.66 97 -5 97 C-5.11630137 86.12474062 -5.20492106 75.24963134 -5.25906086 64.37387466 C-5.28505693 59.32275537 -5.32027071 54.27206431 -5.37719727 49.22119141 C-5.43187559 44.33875115 -5.4614955 39.45672051 -5.47438622 34.5739975 C-5.48356222 32.7194042 -5.50147958 30.86483108 -5.52865028 29.01041412 C-5.68053342 18.20595238 -5.38674618 9.6574346 0 0 Z " fill="#F45552" transform="translate(67,35)"/>
<path d="M0 0 C-5.57079278 3.34247567 -11.90849936 3.1244548 -18.22045898 3.02172852 C-18.90423111 3.01212097 -19.58800323 3.00251343 -20.29249573 2.99261475 C-22.52714357 2.95993179 -24.76157657 2.91948536 -26.99609375 2.87890625 C-28.55549895 2.85457501 -30.11491185 2.83073301 -31.67433167 2.80735779 C-35.75964193 2.74481551 -39.84481414 2.6756659 -43.92999268 2.60510254 C-48.10625981 2.53414778 -52.28262408 2.46949379 -56.45898438 2.40429688 C-64.63943055 2.27566994 -72.81974157 2.14005703 -81 2 C-81 1.67 -81 1.34 -81 1 C-72.0631249 0.8686724 -63.12623757 0.73821873 -54.18933392 0.60884857 C-50.03856984 0.54873555 -45.88781041 0.48833334 -41.73706055 0.42724609 C-37.72351373 0.36818913 -33.7099561 0.30992333 -29.69639015 0.25218201 C-28.17317109 0.23013373 -26.64995597 0.2078112 -25.12674522 0.18519592 C-16.75082293 0.06102918 -8.37702412 -0.03520081 0 0 Z " fill="#F23E3A" transform="translate(406,482)"/>
<path d="M0 0 C0.33 0 0.66 0 1 0 C1.02505615 0.93158936 1.0501123 1.86317871 1.07592773 2.82299805 C1.17216842 6.34374844 1.27131779 9.86439377 1.37231445 13.38500977 C1.41511166 14.89669693 1.45681376 16.40841558 1.49731445 17.92016602 C1.74968067 27.3075662 2.1669095 36.64178703 3 46 C3.66 46 4.32 46 5 46 C5.33 46.99 5.66 47.98 6 49 C6.66 49.33 7.32 49.66 8 50 C8.73075648 52.3140622 9.40138258 54.64828869 10 57 C9.34 57 8.68 57 8 57 C2.31097251 47.19133191 -0.17372905 39.61895518 -0.09765625 28.22265625 C-0.0962413 27.41130722 -0.09482635 26.59995819 -0.09336853 25.76402283 C-0.08781357 23.19680953 -0.07526967 20.62968652 -0.0625 18.0625 C-0.05747917 16.31185023 -0.05291729 14.56119907 -0.04882812 12.81054688 C-0.03785893 8.5403303 -0.02062582 4.27018041 0 0 Z " fill="#F23835" transform="translate(62,411)"/>
<path d="M0 0 C0 0.33 0 0.66 0 1 C-0.85851562 1.28488281 -1.71703125 1.56976562 -2.6015625 1.86328125 C-4.28378906 2.42595703 -4.28378906 2.42595703 -6 3 C-7.03898437 3.34417969 -8.07796875 3.68835938 -9.1484375 4.04296875 C-16.5692045 6.67527472 -24.37367955 9.69960782 -28.07421875 17.16796875 C-29 19 -29 19 -31.125 19.75 C-32.053125 19.87375 -32.053125 19.87375 -33 20 C-32.67 18.68 -32.34 17.36 -32 16 C-31.34 16 -30.68 16 -30 16 C-30 15.34 -30 14.68 -30 14 C-21.70995778 6.51838388 -11.55137393 -0.52816017 0 0 Z " fill="#FBC3C2" transform="translate(102,15)"/>
<path d="M0 0 C12.87 0.66 25.74 1.32 39 2 C39 2.33 39 2.66 39 3 C34.52160743 3.22790573 30.04238336 3.42876818 25.5625 3.625 C24.30244141 3.68945312 23.04238281 3.75390625 21.74414062 3.8203125 C14.76570931 4.11183966 8.69977909 4.07122508 2 2 C1.34 1.34 0.68 0.68 0 0 Z " fill="#F5625F" transform="translate(90,481)"/>
<path d="M0 0 C0.33 0 0.66 0 1 0 C1.34375 2.13671875 1.34375 2.13671875 1 5 C-0.78663019 7.1491769 -2.46395503 8.93903847 -4.5 10.8125 C-5.02464844 11.31458984 -5.54929688 11.81667969 -6.08984375 12.33398438 C-7.38222532 13.56762133 -8.68969599 14.78541625 -10 16 C-10 12.26071501 -9.08040398 11.59097747 -6.625 8.875 C-5.99851563 8.17117187 -5.37203125 7.46734375 -4.7265625 6.7421875 C-3 5 -3 5 -1 4 C-0.34786708 1.97536745 -0.34786708 1.97536745 0 0 Z " fill="#FCC9CA" transform="translate(164,224)"/>
<path d="M0 0 C0.66 0.33 1.32 0.66 2 1 C0.02 2.98 -1.96 4.96 -4 7 C-1.03 7.495 -1.03 7.495 2 8 C2 8.33 2 8.66 2 9 C-1.3 9 -4.6 9 -8 9 C-5.73106888 4.46213776 -3.90133466 3.05321843 0 0 Z " fill="#FCC8C9" transform="translate(207,142)"/>
<path d="M0 0 C0.66 0.33 1.32 0.66 2 1 C1.51789063 1.4125 1.03578125 1.825 0.5390625 2.25 C-4.22524257 6.60593606 -5.99251049 9.6192331 -7 16 C-7.33 16 -7.66 16 -8 16 C-8.45760607 10.2799241 -7.63848132 7.44703273 -4 3 C-1.75 1.125 -1.75 1.125 0 0 Z " fill="#FCC7C8" transform="translate(214,180)"/>
<path d="M0 0 C0.99 0.495 0.99 0.495 2 1 C2 1.99 2 2.98 2 4 C2.66 4 3.32 4 4 4 C4.33 4.99 4.66 5.98 5 7 C5.66 7.33 6.32 7.66 7 8 C7.73075648 10.3140622 8.40138258 12.64828869 9 15 C8.34 15 7.68 15 7 15 C0 2.93103448 0 2.93103448 0 0 Z " fill="#FAB6B5" transform="translate(63,453)"/>
<path d="M0 0 C0.66 0.33 1.32 0.66 2 1 C1.16855469 1.81404297 1.16855469 1.81404297 0.3203125 2.64453125 C-0.76636719 3.71767578 -0.76636719 3.71767578 -1.875 4.8125 C-2.59429687 5.52019531 -3.31359375 6.22789062 -4.0546875 6.95703125 C-6.15358937 9.04399194 -6.15358937 9.04399194 -8 12 C-7.49572053 7.58755464 -5.98672249 5.25025683 -3 2 C-2.01 1.34 -1.02 0.68 0 0 Z " fill="#FCC5C6" transform="translate(321,238)"/>
<path d="M0 0 C0.33 0 0.66 0 1 0 C1.26252625 4.33168317 0.29243536 7.8803623 -1 12 C-1.33 12 -1.66 12 -2 12 C-2.28571429 3.42857143 -2.28571429 3.42857143 0 0 Z " fill="#F45452" transform="translate(64,46)"/>
</svg>
