<?xml version="1.0" encoding="UTF-8"?>
<svg version="1.1" xmlns="http://www.w3.org/2000/svg" width="500" height="500">
<path d="M0 0 C165 0 330 0 500 0 C500 165 500 330 500 500 C335 500 170 500 0 500 C0 335 0 170 0 0 Z " fill="#FEFEFE" transform="translate(0,0)"/>
<path d="M0 0 C1.08930061 -0.03920815 1.08930061 -0.03920815 2.2006073 -0.07920837 C4.59083104 -0.15836373 6.98053415 -0.21316626 9.37158203 -0.26098633 C10.19561649 -0.27820551 11.01965096 -0.29542469 11.86865616 -0.31316566 C16.23768716 -0.39903683 20.60647923 -0.46226358 24.97607422 -0.51074219 C28.56304841 -0.55506383 32.14420832 -0.64521751 35.72900391 -0.77734375 C68.68739418 -1.96479821 68.68739418 -1.96479821 77.55300903 6.01261902 C79.98477822 8.68876209 82.09769694 11.43448431 84.06829834 14.46481323 C87.96910706 20.24954562 93.02787443 25.23505691 98.00439453 30.09448242 C101.65618701 33.69741942 105.20440484 37.32612467 108.4375 41.31445312 C110.53808149 43.73903884 110.53808149 43.73903884 113.4465332 46.0390625 C118.66504263 50.54863462 122.58642424 54.68181088 123.4777832 61.7409668 C123.83192096 67.63581717 123.62706221 73.51164083 123.37939453 79.40698242 C123.28467348 82.44747979 123.2081277 85.48581367 123.16629028 88.5275116 C123.13732017 90.406011 123.07714192 92.28439167 122.97994995 94.16059875 C122.80702885 101.90556518 124.25189289 102.5911469 129.50439453 109.59448242 C129.83439453 101.34448242 130.16439453 93.09448242 130.50439453 84.59448242 C132.81439453 84.59448242 135.12439453 84.59448242 137.50439453 84.59448242 C137.50439453 97.13448242 137.50439453 109.67448242 137.50439453 122.59448242 C131.50439453 122.59448242 131.50439453 122.59448242 129.16845703 120.40698242 C128.49556641 119.47885742 127.82267578 118.55073242 127.12939453 117.59448242 C126.44103516 116.66635742 125.75267578 115.73823242 125.04345703 114.78198242 C124.53556641 114.06010742 124.02767578 113.33823242 123.50439453 112.59448242 C123.50296951 113.22817749 123.50154449 113.86187256 123.50007629 114.51477051 C123.48032878 121.13422452 123.42594647 127.75276267 123.35180664 134.37182617 C123.32866685 136.83920716 123.31424042 139.30668635 123.30883789 141.77416992 C123.29951955 145.32947714 123.25846157 148.8832481 123.21142578 152.43823242 C123.21535843 153.53437866 123.21929108 154.6305249 123.2233429 155.7598877 C123.09350941 162.63703522 122.01092913 167.28736611 117.50439453 172.59448242 C113.36229769 176.4407152 110.31281832 177.71025314 104.71772766 177.75511169 C103.73229477 177.76515732 102.74686188 177.77520294 101.73156738 177.78555298 C100.65153442 177.79138397 99.57150146 177.79721497 98.45874023 177.80322266 C96.75097664 177.81789833 96.75097664 177.81789833 95.00871277 177.83287048 C91.2325457 177.86283931 87.45641409 177.88421439 83.68017578 177.90307617 C81.74651689 177.91293391 81.74651689 177.91293391 79.77379417 177.9229908 C74.35474865 177.94888023 68.93571624 177.97236832 63.51662922 177.98748684 C55.7627369 178.00937589 48.00953852 178.05131318 40.25592357 178.12092441 C34.1386208 178.17397053 28.02159136 178.19398064 21.90407372 178.2026844 C19.30654709 178.21124572 16.70903304 178.23008013 14.1116581 178.25942802 C10.47289734 178.29832809 6.83594074 178.29937776 3.19702148 178.29150391 C1.59215378 178.32150482 1.59215378 178.32150482 -0.0451355 178.35211182 C-6.10887547 178.29330758 -10.23532811 177.53572689 -14.86175919 173.44730282 C-21.38144428 166.05382545 -21.06835948 157.60243673 -20.99731445 148.18969727 C-21.00110386 146.75146457 -21.006609 145.31323553 -21.01368713 143.87501526 C-21.02757574 139.99281345 -21.01652001 136.11105809 -20.99997592 132.22888136 C-20.98606235 128.15491407 -20.99259245 124.08097104 -20.99610901 120.00698853 C-20.99880555 113.16954402 -20.98538141 106.33227564 -20.9621582 99.49487305 C-20.93553062 91.600723 -20.93381018 83.70686687 -20.94554657 75.81268728 C-20.95634023 68.20139725 -20.95012621 60.59021307 -20.93599129 52.97893143 C-20.93024739 49.74703073 -20.93030151 46.51520791 -20.93505669 43.28330612 C-20.93984302 39.47627967 -20.92965672 35.66957353 -20.90810204 31.86260796 C-20.90255725 30.46907697 -20.90204758 29.07551506 -20.9070549 27.68198204 C-20.93738313 18.02827864 -20.52700075 10.82677472 -13.49560547 3.59448242 C-8.90073101 0.83321161 -5.32763598 0.16964992 0 0 Z " fill="#FB0106" transform="translate(79.49560546875,176.405517578125)"/>
<path d="M0 0 C1.08930061 -0.03920815 1.08930061 -0.03920815 2.2006073 -0.07920837 C4.59083104 -0.15836373 6.98053415 -0.21316626 9.37158203 -0.26098633 C10.19561649 -0.27820551 11.01965096 -0.29542469 11.86865616 -0.31316566 C16.23768716 -0.39903683 20.60647923 -0.46226358 24.97607422 -0.51074219 C28.56304841 -0.55506383 32.14420832 -0.64521751 35.72900391 -0.77734375 C68.68739418 -1.96479821 68.68739418 -1.96479821 77.55300903 6.01261902 C79.98477822 8.68876209 82.09769694 11.43448431 84.06829834 14.46481323 C87.96910706 20.24954562 93.02787443 25.23505691 98.00439453 30.09448242 C101.69851173 33.73910246 105.23598619 37.45658877 108.60205078 41.40698242 C111.63548268 44.89511767 114.79523006 48.2682704 117.94970703 51.64697266 C121.50439453 55.48606005 121.50439453 55.48606005 121.50439453 56.59448242 C105.4527961 57.66458898 105.4527961 57.66458898 101.24267578 55.35229492 C99.75439453 53.65698242 99.75439453 53.65698242 98.30517578 51.73120117 C89.82785414 41.6724269 74.11570521 35.94665055 61.50439453 34.59448242 C39.54232607 33.18554837 21.18345011 37.36921409 4.07080078 52.09057617 C-8.29688822 64.15707336 -16.18770012 80.42974354 -16.92919922 97.77807617 C-16.9526704 99.86257986 -16.95360221 101.94744737 -16.93310547 104.03198242 C-16.92480713 105.12800781 -16.91650879 106.2240332 -16.90795898 107.35327148 C-16.52536058 125.66897896 -8.45692292 141.90966667 4.67236328 154.70776367 C20.98643669 168.78104308 39.73592224 172.78472174 60.78710938 171.80151367 C79.25559347 170.39439107 93.36122318 160.50753395 105.56298828 147.37963867 C114.59664058 136.575471 118.67987776 124.10304089 121.50439453 110.59448242 C122.16439453 110.92448242 122.82439453 111.25448242 123.50439453 111.59448242 C123.48807201 118.99648781 123.43312676 126.3974977 123.35180664 133.79907227 C123.32866425 136.31495712 123.31423981 138.83093834 123.30883789 141.34692383 C123.2995215 144.97171828 123.25846742 148.59500481 123.21142578 152.21948242 C123.21535843 153.33750244 123.21929108 154.45552246 123.2233429 155.60742188 C123.09494447 162.53942277 122.0645046 167.25073552 117.50439453 172.59448242 C113.36229769 176.4407152 110.31281832 177.71025314 104.71772766 177.75511169 C103.73229477 177.76515732 102.74686188 177.77520294 101.73156738 177.78555298 C100.65153442 177.79138397 99.57150146 177.79721497 98.45874023 177.80322266 C96.75097664 177.81789833 96.75097664 177.81789833 95.00871277 177.83287048 C91.2325457 177.86283931 87.45641409 177.88421439 83.68017578 177.90307617 C81.74651689 177.91293391 81.74651689 177.91293391 79.77379417 177.9229908 C74.35474865 177.94888023 68.93571624 177.97236832 63.51662922 177.98748684 C55.7627369 178.00937589 48.00953852 178.05131318 40.25592357 178.12092441 C34.1386208 178.17397053 28.02159136 178.19398064 21.90407372 178.2026844 C19.30654709 178.21124572 16.70903304 178.23008013 14.1116581 178.25942802 C10.47289734 178.29832809 6.83594074 178.29937776 3.19702148 178.29150391 C1.59215378 178.32150482 1.59215378 178.32150482 -0.0451355 178.35211182 C-6.10887547 178.29330758 -10.23532811 177.53572689 -14.86175919 173.44730282 C-21.38144428 166.05382545 -21.06835948 157.60243673 -20.99731445 148.18969727 C-21.00110386 146.75146457 -21.006609 145.31323553 -21.01368713 143.87501526 C-21.02757574 139.99281345 -21.01652001 136.11105809 -20.99997592 132.22888136 C-20.98606235 128.15491407 -20.99259245 124.08097104 -20.99610901 120.00698853 C-20.99880555 113.16954402 -20.98538141 106.33227564 -20.9621582 99.49487305 C-20.93553062 91.600723 -20.93381018 83.70686687 -20.94554657 75.81268728 C-20.95634023 68.20139725 -20.95012621 60.59021307 -20.93599129 52.97893143 C-20.93024739 49.74703073 -20.93030151 46.51520791 -20.93505669 43.28330612 C-20.93984302 39.47627967 -20.92965672 35.66957353 -20.90810204 31.86260796 C-20.90255725 30.46907697 -20.90204758 29.07551506 -20.9070549 27.68198204 C-20.93738313 18.02827864 -20.52700075 10.82677472 -13.49560547 3.59448242 C-8.90073101 0.83321161 -5.32763598 0.16964992 0 0 Z " fill="#F11C18" transform="translate(79.49560546875,176.405517578125)"/>
<path d="M0 0 C0.33 0 0.66 0 1 0 C1.33 31.35 1.66 62.7 2 95 C2.33 95 2.66 95 3 95 C3.1959375 95.969375 3.391875 96.93875 3.59375 97.9375 C7.70326141 116.86890348 16.4102632 134.07878805 33 145 C51.28631989 155.79571602 71.19921459 159.47881071 92.125 154.4375 C111.06316609 148.39742045 125.34123923 135.86807916 134.6875 118.4375 C138.34738451 110.89517044 140.29018583 103.17737213 142 95 C142.66 95.33 143.32 95.66 144 96 C143.98367748 103.40200538 143.92873223 110.80301528 143.84741211 118.20458984 C143.82426972 120.7204747 143.80984528 123.23645592 143.80444336 125.75244141 C143.79512696 129.37723586 143.75407289 133.00052238 143.70703125 136.625 C143.7109639 137.74302002 143.71489655 138.86104004 143.71894836 140.01293945 C143.59054994 146.94494035 142.56011007 151.6562531 138 157 C133.85790316 160.84623278 130.80842379 162.11577071 125.21333313 162.16062927 C124.22790024 162.1706749 123.24246735 162.18072052 122.22717285 162.19107056 C121.14713989 162.19690155 120.06710693 162.20273254 118.9543457 162.20874023 C117.24658211 162.22341591 117.24658211 162.22341591 115.50431824 162.23838806 C111.72815117 162.26835689 107.95201956 162.28973197 104.17578125 162.30859375 C102.24212235 162.31845149 102.24212235 162.31845149 100.26939964 162.32850838 C94.85035412 162.35439781 89.43132171 162.3778859 84.01223469 162.39300442 C76.25834236 162.41489347 68.50514399 162.45683076 60.75152904 162.52644199 C54.63422627 162.57948811 48.51719683 162.59949822 42.39967918 162.60820198 C39.80215255 162.6167633 37.20463851 162.63559771 34.60726357 162.6649456 C30.96850281 162.70384567 27.33154621 162.70489534 23.69262695 162.69702148 C22.08775925 162.7270224 22.08775925 162.7270224 20.45046997 162.75762939 C14.38689144 162.69882673 10.25976914 161.94166506 5.63403225 157.85238647 C-0.92134685 150.4210181 -0.55797326 141.94232348 -0.45410156 132.48413086 C-0.45297142 131.03454622 -0.4536102 129.58495929 -0.45587158 128.13537598 C-0.45701317 124.22467278 -0.43359479 120.31446634 -0.40557575 116.40387797 C-0.38046878 112.30797939 -0.37821281 108.21206779 -0.37347412 104.11610413 C-0.36107153 96.37082269 -0.32828699 88.62576871 -0.28807616 80.88058716 C-0.24327357 72.05832941 -0.22135013 63.23606045 -0.20129442 54.41371715 C-0.15955172 36.27568277 -0.08925288 18.13785971 0 0 Z " fill="#F1221E" transform="translate(59,192)"/>
<path d="M0 0 C3.61178707 0.79007842 6.41474151 2.85224151 9 5.4375 C9.12156626 7.88026345 9.17858482 10.29528217 9.19287109 12.73950195 C9.20513733 13.88588135 9.20513733 13.88588135 9.21765137 15.05541992 C9.24255178 17.59553228 9.25903349 20.13558857 9.2734375 22.67578125 C9.27876118 23.541444 9.28408485 24.40710674 9.28956985 25.29900169 C9.31632218 29.88121023 9.33569 34.46339134 9.35009766 39.0456543 C9.36674705 43.78403025 9.41152081 48.52171085 9.4624691 53.2598238 C9.4960939 56.89807451 9.50766986 60.53615931 9.51332474 64.17455101 C9.52005094 65.92131041 9.53530852 67.66805838 9.55921555 69.41466713 C9.59076836 71.85946188 9.59091956 74.30237031 9.58349609 76.74731445 C9.59990143 77.47007065 9.61630676 78.19282684 9.63320923 78.93748474 C9.58688614 82.66167037 9.2869716 84.14207819 6.65103149 86.8556366 C2.32630134 89.43619152 -1.00281298 89.94568851 -6 89.4375 C-11.16071812 86.16242889 -12.98928496 83.13452594 -15 77.4375 C-15.53625 77.788125 -16.0725 78.13875 -16.625 78.5 C-19.84367331 79.77052894 -21.70954769 79.41763473 -25 78.4375 C-27.67774326 76.02753107 -27.97847801 74.81054782 -28.1875 71.1875 C-28.0946875 69.82625 -28.0946875 69.82625 -28 68.4375 C-25.525 67.9425 -25.525 67.9425 -23 67.4375 C-23.5775 67.210625 -24.155 66.98375 -24.75 66.75 C-27.66350652 65.05045453 -29.16311664 63.25842802 -31 60.4375 C-31.25 57.625 -31.25 57.625 -31 55.4375 C-28 55.4375 -28 55.4375 -25 56.4375 C-25.825 55.4475 -26.65 54.4575 -27.5 53.4375 C-30.51391293 49.20774719 -30.66106333 46.5607408 -30 41.4375 C-28.625 38.625 -28.625 38.625 -27 36.4375 C-26.34 35.4475 -25.68 34.4575 -25 33.4375 C-25.515625 32.921875 -26.03125 32.40625 -26.5625 31.875 C-28 29.4375 -28 29.4375 -27.9375 25.875 C-27 22.4375 -27 22.4375 -25.375 20.5 C-22.16962495 19.06601642 -19.46772635 19.23743886 -16 19.4375 C-15.67 18.7775 -15.34 18.1175 -15 17.4375 C-16.32 17.4375 -17.64 17.4375 -19 17.4375 C-18.66602151 14.43169362 -18.15988669 12.65888157 -16.375 10.1875 C-13.24326169 7.87990335 -10.85114806 7.6438115 -7 7.4375 C-4.5625 7.875 -4.5625 7.875 -3 8.4375 C-3 7.7775 -3 7.1175 -3 6.4375 C-5.64 6.1075 -8.28 5.7775 -11 5.4375 C-7.69540319 1.30675399 -5.43554666 -0.32942707 0 0 Z " fill="#FEF5F5" transform="translate(124,234.5625)"/>
<path d="M0 0 C22.7075718 0 22.7075718 0 28.60546875 5.49609375 C33.00058794 10.43290831 33.35728371 14.8018514 33.2734375 21.140625 C32.86554698 25.40599443 31.71404911 28.66447298 29 32 C26.72515297 33.74286721 24.63344192 34.78081392 22 36 C21.01 36.495 21.01 36.495 20 37 C18.47851674 37.08372659 16.95344222 37.10730027 15.4296875 37.09765625 C14.62257324 37.09515869 13.81545898 37.09266113 12.98388672 37.09008789 C11.9579541 37.08098389 10.93202148 37.07187988 9.875 37.0625 C4.986875 37.0315625 4.986875 37.0315625 0 37 C0 24.79 0 12.58 0 0 Z " fill="#EF4B4B" transform="translate(376,261)"/>
<path d="M0 0 C6.92401127 5.9348668 13.44309889 11.94971832 19.375 18.875 C22.26216736 22.24560003 25.34272698 25.3847601 28.5 28.5 C32.19146098 32.14741162 35.73141292 35.86189658 39.09765625 39.8125 C42.13108815 43.30063524 45.29083553 46.67378797 48.4453125 50.05249023 C52 53.89157763 52 53.89157763 52 55 C35.94840157 56.07010656 35.94840157 56.07010656 31.73828125 53.7578125 C30.25 52.0625 30.25 52.0625 28.8046875 50.13671875 C26.38846742 47.27595601 23.49442433 45.38197634 20.375 43.375 C18.74691406 42.30378906 18.74691406 42.30378906 17.0859375 41.2109375 C11.64910051 38.26901614 5.76971409 36.2191208 0 34 C0 22.78 0 11.56 0 0 Z " fill="#F86969" transform="translate(149,178)"/>
<path d="M0 0 C6 0 6 0 8.7109375 2.67578125 C9.61860244 3.87338309 10.50575516 5.0867271 11.375 6.3125 C11.84397705 6.94172363 12.3129541 7.57094727 12.79614258 8.21923828 C14.21623746 10.13316361 15.60923549 12.06469808 17 14 C17.82793749 15.12739752 18.65727244 16.25377069 19.48828125 17.37890625 C21.34341275 19.9062346 23.17449888 22.45118711 25 25 C25.33 16.75 25.66 8.5 26 0 C28.31 0 30.62 0 33 0 C33 12.54 33 25.08 33 38 C27 38 27 38 24.6640625 35.8828125 C23.99117187 34.97273438 23.31828125 34.06265625 22.625 33.125 C21.93664062 32.22007812 21.24828125 31.31515625 20.5390625 30.3828125 C19 28 19 28 19 26 C18.34 26 17.68 26 17 26 C15.37277924 24.0261871 13.86763463 22.07041151 12.375 20 C10.93125 18.02 9.4875 16.04 8 14 C7.67 21.92 7.34 29.84 7 38 C4.69 38 2.38 38 0 38 C0 25.46 0 12.92 0 0 Z " fill="#191414" transform="translate(184,261)"/>
<path d="M0 0 C3.50625 -0.103125 7.0125 -0.20625 10.625 -0.3125 C11.71893066 -0.35802002 12.81286133 -0.40354004 13.93994141 -0.45043945 C22.01961395 -0.5653128 22.01961395 -0.5653128 25.671875 2.17578125 C28.93289697 6.13168542 28.73738044 8.46618822 28.46484375 13.3984375 C27.84308547 16.87819391 26.67442973 18.70763166 24 21 C20.38132441 22.2062252 17.07493749 22.10816918 13.3125 22.0625 C12.61060547 22.05798828 11.90871094 22.05347656 11.18554688 22.04882812 C9.45699462 22.03706927 7.72848635 22.01913454 6 22 C6 26.62 6 31.24 6 36 C4.02 36 2.04 36 0 36 C0 24.12 0 12.24 0 0 Z " fill="#EF4848" transform="translate(343,262)"/>
<path d="M0 0 C4.00436616 2.88686863 6.16243647 6.1621642 7.0703125 10.9609375 C7.3657422 16.10141423 5.9265065 19.06868668 2.6875 22.9375 C-1.4002348 26.71010106 -5.03031244 26.49011433 -10.390625 26.359375 C-14.83981142 25.7169791 -16.39652675 24.31389008 -19.3125 20.9375 C-21.83580289 16.67942638 -21.99340901 12.77951962 -21.3125 7.9375 C-16.71491726 -1.25766549 -9.34118725 -2.99622987 0 0 Z " fill="#1A1A1A" transform="translate(322.3125,273.0625)"/>
<path d="M0 0 C4.57681459 1.83072584 6.7481855 4.66317208 9 9 C9 11.31 9 13.62 9 16 C2.73 16 -3.54 16 -10 16 C-9.01 17.65 -8.02 19.3 -7 21 C-4.63592916 21.64090535 -4.63592916 21.64090535 -2.0625 21.375 C-0.78052734 21.32472656 -0.78052734 21.32472656 0.52734375 21.2734375 C2.77158678 21.02525897 4.83070148 20.61404738 7 20 C7.33 21.65 7.66 23.3 8 25 C2.80799182 28.16585865 -3.13361418 27.59756974 -9 27 C-12.25272196 25.83358954 -14.2730911 24.18090815 -16.11328125 21.19140625 C-17.84496281 16.91178795 -17.75033979 12.50839754 -17 8 C-12.83409379 0.677717 -8.05638399 -0.755286 0 0 Z " fill="#202020" transform="translate(239,272)"/>
<path d="M0 0 C8.25 0 16.5 0 25 0 C25 1.98 25 3.96 25 6 C19.06 6 13.12 6 7 6 C7 9.3 7 12.6 7 16 C12.61 16 18.22 16 24 16 C24 17.98 24 19.96 24 22 C18.39 22 12.78 22 7 22 C7 26.95 7 31.9 7 37 C4.69 37 2.38 37 0 37 C0 24.79 0 12.58 0 0 Z " fill="#EF4F4F" transform="translate(414,261)"/>
<path d="M0 0 C2.64 0 5.28 0 8 0 C8.33 6.6 8.66 13.2 9 20 C10.65 20.33 12.3 20.66 14 21 C17.15110403 19.40040156 17.15110403 19.40040156 17.43237305 17.02880859 C17.45855713 16.24328613 17.48474121 15.45776367 17.51171875 14.6484375 C17.54716797 13.79765625 17.58261719 12.946875 17.61914062 12.0703125 C17.64169922 11.18085938 17.66425781 10.29140625 17.6875 9.375 C17.72166016 8.4778125 17.75582031 7.580625 17.79101562 6.65625 C17.87362402 4.43762462 17.94272719 2.2194006 18 0 C20.64 0 23.28 0 26 0 C26 8.91 26 17.82 26 27 C23.69 27 21.38 27 19 27 C18.67 26.34 18.34 25.68 18 25 C17.01 25.66 16.02 26.32 15 27 C11.61007956 27.53763346 8.38852056 27.55549517 5 27 C1.79360132 24.1064207 0.12560433 21.30652768 -0.11352539 16.9152832 C-0.10828857 16.13499756 -0.10305176 15.35471191 -0.09765625 14.55078125 C-0.09443359 13.70322266 -0.09121094 12.85566406 -0.08789062 11.98242188 C-0.07951172 11.10134766 -0.07113281 10.22027344 -0.0625 9.3125 C-0.05798828 8.41982422 -0.05347656 7.52714844 -0.04882812 6.60742188 C-0.03704983 4.40488013 -0.02060164 2.20247401 0 0 Z " fill="#292929" transform="translate(251,272)"/>
<path d="M0 0 C11.75862069 0 11.75862069 0 16 3 C18.95140394 6.4433046 19.48141035 9.48543543 19.28515625 14.0078125 C18.68463645 18.20322477 17.05869633 21.00747219 14 23.875 C11 25 11 25 0 25 C0 16.75 0 8.5 0 0 Z " fill="#FEFBFB" transform="translate(383,267)"/>
<path d="M0 0 C5.94 0 11.88 0 18 0 C18 14.19 18 28.38 18 43 C17.67 43 17.34 43 17 43 C16.82984375 41.97261719 16.6596875 40.94523437 16.484375 39.88671875 C14.19867333 26.58940783 10.58561216 16.29921811 3 5 C2.01 3.35 1.02 1.7 0 0 Z " fill="#F12521" transform="translate(184,233)"/>
<path d="M0 0 C2.31 0 4.62 0 7 0 C7.33 0.99 7.66 1.98 8 3 C8.804375 2.2575 8.804375 2.2575 9.625 1.5 C12.59358445 -0.37489544 14.55312427 -0.23501425 18 0 C18 1.98 18 3.96 18 6 C15.98177083 6.45572917 13.96354167 6.91145833 11.9453125 7.3671875 C9.79280036 7.90474428 9.79280036 7.90474428 8 10 C7.69324768 12.89967757 7.48826629 15.71783178 7.375 18.625 C7.33632813 19.42679687 7.29765625 20.22859375 7.2578125 21.0546875 C7.16346069 23.03607556 7.08063785 25.01800645 7 27 C4.69 27 2.38 27 0 27 C0 18.09 0 9.18 0 0 Z " fill="#191919" transform="translate(282,272)"/>
<path d="M0 0 C1.8125 1.1875 1.8125 1.1875 3 3 C3.4375 5.9375 3.4375 5.9375 3 9 C1.25 11.3125 1.25 11.3125 -1 13 C-1.66128906 13.08636719 -2.32257813 13.17273438 -3.00390625 13.26171875 C-5.2729574 13.84201819 -5.2729574 13.84201819 -6.23046875 16.46875 C-6.54628906 17.4690625 -6.86210937 18.469375 -7.1875 19.5 C-8.95047619 24.95047619 -8.95047619 24.95047619 -10 26 C-12.01964199 26.07244053 -14.04167124 26.08377188 -16.0625 26.0625 C-17.16722656 26.05347656 -18.27195313 26.04445313 -19.41015625 26.03515625 C-20.69212891 26.01775391 -20.69212891 26.01775391 -22 26 C-22 25.01 -22 24.02 -22 23 C-18.37 22.67 -14.74 22.34 -11 22 C-9.21021264 17.06688682 -9.21021264 17.06688682 -8 12 C-9.35400645 9.27018168 -9.35400645 9.27018168 -11 7 C-10.40382837 3.6216941 -9.90969684 1.7214837 -7.1875 -0.4375 C-4.38712457 -1.15759654 -2.73718181 -0.91239394 0 0 Z " fill="#FEF3F3" transform="translate(157,240)"/>
<path d="M0 0 C4.29 0 8.58 0 13 0 C13.87890625 2.79947917 14.7578125 5.59895833 15.63671875 8.3984375 C16.7819012 11.19830195 16.7819012 11.19830195 19.53125 12.2734375 C20.3459375 12.51320313 21.160625 12.75296875 22 13 C23.8125 14.25 23.8125 14.25 25 16 C25.53852618 19.61581862 25.42236225 21.34111489 23.4375 24.4375 C21 26 21 26 17.4375 26.0625 C14 25 14 25 11.9375 22.8125 C10.72986449 19.18959346 11.48534328 17.42790732 13 14 C13.66 14 14.32 14 15 14 C14.71125 13.30132812 14.4225 12.60265625 14.125 11.8828125 C13.75375 10.97273438 13.3825 10.06265625 13 9.125 C12.62875 8.22007812 12.2575 7.31515625 11.875 6.3828125 C11 4 11 4 11 2 C7.37 2 3.74 2 0 2 C0 1.34 0 0.68 0 0 Z " fill="#FEF2F2" transform="translate(135,294)"/>
<path d="M0 0 C3.3376405 1.23347584 4.3564082 1.85658397 5.875 5.0625 C6.39916181 9.18091419 6.26970801 11.34898937 4.25 15 C1.875 17.0625 1.875 17.0625 -1.125 17.6875 C-4.125 17.0625 -4.125 17.0625 -6.5 15 C-8.55283478 11.28910635 -8.7974224 9.2464616 -8.125 5.0625 C-5.59951332 1.49710704 -4.44248757 0.08884975 0 0 Z " fill="#F3F3F3" transform="translate(316.125,276.9375)"/>
<path d="M0 0 C3.4375 0.75 3.4375 0.75 5.4375 2.75 C5.98337156 8.75458716 5.98337156 8.75458716 4.375 11.6875 C1.28256242 13.38335287 -1.11764741 13.18060657 -4.5625 12.75 C-5.02889893 12.09354492 -5.49529785 11.43708984 -5.97583008 10.76074219 C-7.38833076 8.54463151 -7.38833076 8.54463151 -9.83081055 8.20410156 C-11.12692261 8.17268066 -11.12692261 8.17268066 -12.44921875 8.140625 C-13.38701172 8.10839844 -14.32480469 8.07617188 -15.29101562 8.04296875 C-16.26748047 8.02878906 -17.24394531 8.01460938 -18.25 8 C-19.23806641 7.97035156 -20.22613281 7.94070313 -21.24414062 7.91015625 C-23.68367596 7.83944508 -26.12225525 7.78675735 -28.5625 7.75 C-28.5625 7.09 -28.5625 6.43 -28.5625 5.75 C-21.6325 5.75 -14.7025 5.75 -7.5625 5.75 C-7.2325 4.43 -6.9025 3.11 -6.5625 1.75 C-3.5625 -0.25 -3.5625 -0.25 0 0 Z " fill="#FEEFEF" transform="translate(163.5625,273.25)"/>
<path d="M0 0 C11.25 -0.40178571 11.25 -0.40178571 15 3 C14.6875 6.375 14.6875 6.375 14 10 C9.43362969 13.04424687 5.43284541 12.12783166 0 12 C0 8.04 0 4.08 0 0 Z " fill="#FEFAFA" transform="translate(350,267)"/>
<path d="M0 0 C0.66 0 1.32 0 2 0 C2.12375 1.11375 2.2475 2.2275 2.375 3.375 C2.6465813 7.03103677 2.6465813 7.03103677 5 9 C8.39597063 9.21676408 10.75778445 9.08073852 14 8 C13.67 8.99 13.34 9.98 13 11 C8.79405774 11.72795155 6.19895255 12.04973814 2 11 C2.66 14.3 3.32 17.6 4 21 C3.01 20.67 2.02 20.34 1 20 C-0.23422324 17.53155352 -0.06595958 15.9371901 0 13.1875 C0.04635122 9.61330595 -0.25759573 6.49990585 -1 3 C-0.67 2.01 -0.34 1.02 0 0 Z " fill="#FB1013" transform="translate(109,269)"/>
<path d="M0 0 C3.625 0.3125 3.625 0.3125 5.5625 2.1875 C6.625 4.3125 6.625 4.3125 6.625 6.3125 C2.005 6.3125 -2.615 6.3125 -7.375 6.3125 C-3.79852941 0.35171569 -3.79852941 0.35171569 0 0 Z " fill="#F6F6F6" transform="translate(235.375,276.6875)"/>
<path d="M0 0 C0.66 0.66 1.32 1.32 2 2 C1.65561395 6.13263259 -0.06429969 9.38108204 -2 13 C-5.96 13 -9.92 13 -14 13 C-14 12.01 -14 11.02 -14 10 C-8.555 9.505 -8.555 9.505 -3 9 C-2.01 6.03 -1.02 3.06 0 0 Z " fill="#FDC9CA" transform="translate(149,253)"/>
<path d="M0 0 C0.33 0.99 0.66 1.98 1 3 C0.28972656 2.98839844 -0.42054687 2.97679687 -1.15234375 2.96484375 C-2.07144531 2.95582031 -2.99054688 2.94679687 -3.9375 2.9375 C-5.31228516 2.92009766 -5.31228516 2.92009766 -6.71484375 2.90234375 C-8.96593327 2.74050951 -8.96593327 2.74050951 -10 4 C-10.36760731 6.32817964 -10.70241581 8.6618385 -11 11 C-11.99 10.67 -12.98 10.34 -14 10 C-13.38976378 3.53149606 -13.38976378 3.53149606 -11.625 1.125 C-7.67529199 -1.60941324 -4.50490847 -0.76498446 0 0 Z " fill="#FB2E31" transform="translate(127,249)"/>
<path d="M0 0 C0.33 0.99 0.66 1.98 1 3 C0.28972656 2.98839844 -0.42054687 2.97679687 -1.15234375 2.96484375 C-2.07144531 2.95582031 -2.99054688 2.94679688 -3.9375 2.9375 C-5.31228516 2.92009766 -5.31228516 2.92009766 -6.71484375 2.90234375 C-8.96593327 2.74050951 -8.96593327 2.74050951 -10 4 C-10.36760731 6.32817964 -10.70241581 8.6618385 -11 11 C-11.66 11 -12.32 11 -13 11 C-13.36681223 3.54148472 -13.36681223 3.54148472 -11.6875 1.0625 C-7.61714113 -1.50031855 -4.5570719 -0.7738424 0 0 Z " fill="#FB1B1E" transform="translate(122,295)"/>
<path d="M0 0 C0.99 0 1.98 0 3 0 C3.185625 1.7015625 3.185625 1.7015625 3.375 3.4375 C3.684375 5.2009375 3.684375 5.2009375 4 7 C6.40545638 8.20272819 7.94996953 8.10071472 10.625 8.0625 C11.44226563 8.05347656 12.25953125 8.04445313 13.1015625 8.03515625 C13.72804687 8.02355469 14.35453125 8.01195312 15 8 C12.56449426 10.85280423 12.09239821 10.98826689 8.0625 11.5 C4.76495861 11.36639795 4.14471103 11.12300438 1.5 8.875 C-0.19511045 5.62603831 -0.33609819 3.61305558 0 0 Z " fill="#FB1A1D" transform="translate(115,305)"/>
<path d="M0 0 C4.29 0 8.58 0 13 0 C13.99 2.97 14.98 5.94 16 9 C15.01 9 14.02 9 13 9 C12.34 6.69 11.68 4.38 11 2 C7.37 2 3.74 2 0 2 C0 1.34 0 0.68 0 0 Z " fill="#FDD3D4" transform="translate(135,294)"/>
<path d="M0 0 C0.66 0 1.32 0 2 0 C2 2.31 2 4.62 2 7 C1.01 7.495 1.01 7.495 0 8 C-0.79953138 4.71303767 -1.09658936 3.28976808 0 0 Z " fill="#FB3336" transform="translate(109,269)"/>
<path d="M0 0 C2.31 0.33 4.62 0.66 7 1 C7.33 1.99 7.66 2.98 8 4 C5.69 3.67 3.38 3.34 1 3 C0.67 2.01 0.34 1.02 0 0 Z " fill="#FB272A" transform="translate(115,294)"/>
</svg>
