<?xml version="1.0" encoding="UTF-8"?>
<svg xmlns="http://www.w3.org/2000/svg"
     viewBox="0 0 500 500"
     width="1em"
     height="1em"
     preserveAspectRatio="xMidYMid meet">
<path d="M0 0 C165 0 330 0 500 0 C500 165 500 330 500 500 C335 500 170 500 0 500 C0 335 0 170 0 0 Z " fill="#FB0005" transform="translate(0,0)"/>
<path d="M0 0 C165 0 330 0 500 0 C500 165 500 330 500 500 C335 500 170 500 0 500 C0 335 0 170 0 0 Z M75 28 C67.70327293 36.24990313 61.88247794 45.33231482 61.86577892 56.55413055 C61.86342669 57.22626925 61.86107446 57.89840795 61.85865095 58.59091449 C61.85195583 60.85941314 61.85241933 63.12785459 61.85282898 65.3963623 C61.84953066 67.03278329 61.84580516 68.66920345 61.8416875 70.30562258 C61.83165549 74.81543538 61.82794877 79.32523488 61.82529819 83.83505726 C61.82139861 88.69416178 61.81181994 93.55325573 61.80308533 98.41235352 C61.78330955 110.15467603 61.77325261 121.89699943 61.76435754 133.63933444 C61.75997585 139.16780577 61.75460867 144.69627614 61.74936867 150.2247467 C61.73235413 168.60140535 61.71786026 186.97806339 61.71061993 205.3547287 C61.70871 210.12515768 61.70678967 214.89558666 61.70483398 219.66601562 C61.70435024 220.85169838 61.7038665 222.03738114 61.7033681 223.25899369 C61.69506901 242.46345168 61.66973511 261.66784736 61.63725331 280.87227815 C61.60418266 300.58549383 61.5861711 320.29867784 61.58297569 340.01192141 C61.58081043 351.08154951 61.57205968 362.15108679 61.54651451 373.22068787 C61.52480735 382.6490226 61.51675715 392.07724446 61.52648129 401.50560135 C61.53102612 406.31505603 61.5291291 411.12427782 61.50971985 415.93370056 C61.49208829 420.34076308 61.49308585 424.74742278 61.50861714 429.15448958 C61.51099324 430.74476496 61.50666954 432.33506824 61.49478849 433.92530102 C61.39333417 448.4072148 64.32391682 458.96792593 74 470 C82.72014118 478.61737857 93.83592468 484.11886461 106.21284103 484.12863445 C107.24833108 484.1318589 108.28382112 484.13508335 109.35068965 484.1384055 C110.48170706 484.1368569 111.61272447 484.1353083 112.77801514 484.13371277 C113.98466867 484.13597833 115.1913222 484.13824388 116.43454099 484.14057809 C119.78075235 484.14581404 123.12690999 484.14656284 126.47312164 484.14538372 C130.08333216 484.14517963 133.69353467 484.15069924 137.30374146 484.15544128 C144.37605811 484.16374706 151.44836643 484.1664961 158.52068755 484.16705366 C164.27039742 484.16752891 170.02010454 484.16958409 175.76981354 484.17275429 C192.07459163 484.18156108 208.37936314 484.18617369 224.68414363 484.18542381 C225.5631028 484.18538386 226.44206196 484.1853439 227.34765625 484.18530273 C228.22768992 484.18526185 229.10772359 484.18522097 230.01442495 484.18517885 C244.2731957 484.1847725 258.53194004 484.19433935 272.79070315 484.2084411 C287.43473748 484.22280947 302.07875893 484.22971101 316.72280049 484.22884732 C324.94296589 484.22851549 333.16310359 484.23125668 341.38326263 484.24202538 C348.38295798 484.25113648 355.38261308 484.25330065 362.38231179 484.24651595 C365.95200939 484.24325368 369.52162981 484.24318344 373.09132004 484.2518692 C376.96559907 484.2611989 380.83976575 484.2549504 384.71405029 484.24723816 C386.39719208 484.2549535 386.39719208 484.2549535 388.11433673 484.26282471 C402.40762414 484.19997876 414.50715017 480.17705644 425.03515625 470.125 C431.12060638 463.54351914 434.29105692 456.47412962 437 448 C437.33 447.01 437.66 446.02 438 445 C438.09793859 443.42570603 438.13981006 441.84762371 438.14818764 440.27030849 C438.15572898 439.29166818 438.16327031 438.31302787 438.17104018 437.30473179 C438.17587953 435.68803666 438.17587953 435.68803666 438.18081665 434.03868103 C438.19162343 432.32420229 438.19162343 432.32420229 438.20264852 430.57508761 C438.22147942 427.39733411 438.23576966 424.21959813 438.24799705 421.04181349 C438.25926776 418.31730779 438.27419913 415.59282695 438.28912015 412.86833917 C438.43012571 387.03191002 438.49553804 361.19491776 438.54844093 335.35817623 C438.55544976 331.99439913 438.56257675 328.6306223 438.56982422 325.2668457 C438.57161951 324.43080256 438.5734148 323.59475942 438.5752645 322.73338164 C438.60531851 309.19599111 438.6700752 295.65898915 438.74851067 282.12180179 C438.82839024 268.22025402 438.87413056 254.31890733 438.88746679 240.41713434 C438.89586859 232.61300324 438.91956609 224.80956077 438.98213577 217.0056591 C439.0354076 210.35783424 439.05806942 203.71079492 439.04102559 197.06276285 C439.03329026 193.67220205 439.04489948 190.28469002 439.08630753 186.89417076 C440.00839956 171.16431815 440.00839956 171.16431815 433.66171265 157.54640198 C431.34702782 155.59478106 431.34702782 155.59478106 429 154 C427.77099963 152.81269339 426.5584534 151.60771121 425.375 150.375 C424.81167969 149.82199219 424.24835938 149.26898438 423.66796875 148.69921875 C421.92473144 146.92332126 420.30591964 145.07754251 418.6875 143.1875 C415.92381971 139.97666245 413.01380404 136.97732835 410 134 C406.37118478 130.41510388 402.9593714 126.737064 399.64453125 122.86328125 C397.45483004 120.38231337 395.10191869 118.09121792 392.7421875 115.7734375 C390.95284173 113.95199585 389.28711468 112.06285721 387.625 110.125 C385.03365795 107.1153247 382.32745217 104.28911384 379.5 101.5 C376.73439592 98.77170593 374.08712969 96.01483166 371.5625 93.0625 C368.05650315 88.97081459 364.24538109 85.23033117 360.4140625 81.4453125 C357.71248706 78.70876521 355.20921265 75.85020634 352.7109375 72.9296875 C350.2530504 70.15754999 347.60376396 67.59449311 344.96484375 64.99609375 C343.07769256 63.07892823 341.31314625 61.10424678 339.5625 59.0625 C336.99334729 56.07198284 334.30682744 53.26883316 331.5 50.5 C328.0711721 47.11758601 324.87951482 43.61929558 321.74609375 39.96484375 C319.27762671 37.18712804 316.62360307 34.61397214 313.9765625 32.0078125 C311.46884489 29.46044718 309.14314537 26.78351712 306.8359375 24.0546875 C305.92714844 23.03761719 305.92714844 23.03761719 305 22 C304.60058846 21.50910839 304.20117692 21.01821679 303.789662 20.51244968 C300.98442246 17.32499117 299.5573353 16.11059743 295.26546288 15.25891972 C293.84195558 15.23263299 292.41760466 15.23895984 290.99423218 15.27174377 C289.8109288 15.2629956 289.8109288 15.2629956 288.60372031 15.2540707 C285.96855931 15.24187673 283.33566992 15.27246424 280.70068359 15.30297852 C278.80796139 15.30303392 276.91523756 15.30045975 275.02252197 15.29545593 C269.88554383 15.28946269 264.74938696 15.32064261 259.61257124 15.35870481 C254.22901995 15.39254145 248.84546369 15.39308682 243.46182251 15.39744568 C234.41467076 15.4094067 225.36782351 15.44321569 216.32080078 15.49243164 C203.59047174 15.56164245 190.86027999 15.59115873 178.12979388 15.61283219 C168.21932185 15.63118178 158.30887722 15.66052095 148.3984375 15.69140625 C147.34076911 15.69457769 146.28310073 15.69774912 145.19338179 15.70101666 C139.09201683 15.71993799 132.99071915 15.74443753 126.88941193 15.77713203 C125.04646406 15.78638548 123.20350756 15.79408183 121.36054611 15.80004501 C96.13307506 15.42693732 96.13307506 15.42693732 75 28 Z " fill="#FEFEFE" transform="translate(0,0)"/>
<path d="M0 0 C1.89360782 -0.019397 3.78721333 -0.03902103 5.68081665 -0.05885315 C22.87562851 -0.2313213 40.07125267 -0.32565603 57.26673889 -0.39992237 C69.95744493 -0.45590065 82.64663597 -0.55086906 95.33664608 -0.6955803 C104.28643686 -0.79418682 113.23581094 -0.84667913 122.18612003 -0.86577719 C127.52145417 -0.87851603 132.85481235 -0.91167628 138.18954468 -0.99537086 C143.20712538 -1.07328408 148.22177453 -1.09386111 153.23987961 -1.07163048 C155.07330536 -1.07332576 156.90685123 -1.09534579 158.73973465 -1.13996887 C173.98486633 -1.49194818 173.98486633 -1.49194818 180.4097929 4.48570663 C182.78679722 6.98009161 184.90442269 9.58118124 187.01953125 12.30395508 C188.26229379 13.72697501 189.51034655 15.14544582 190.76953125 16.55395508 C191.300625 17.17786133 191.83171875 17.80176758 192.37890625 18.44458008 C194.8079845 21.19753543 197.43966721 23.7329949 200.0546875 26.30786133 C201.94183869 28.22502685 203.706385 30.1997083 205.45703125 32.24145508 C208.02618396 35.23197224 210.71270381 38.03512192 213.51953125 40.80395508 C216.94835915 44.18636907 220.14001643 47.6846595 223.2734375 51.33911133 C225.115688 53.41215831 227.04354787 55.35831309 229.01953125 57.30395508 C231.59878185 59.84367693 234.04170514 62.42846822 236.39453125 65.17895508 C239.13574574 68.37078017 242.02639013 71.34698485 245.01953125 74.30395508 C248.60511824 77.84627707 251.96844787 81.47951169 255.2421875 85.30786133 C257.96686218 88.36788059 260.90831197 91.20102352 263.82421875 94.07739258 C266.45959868 96.75028681 268.89719614 99.5576381 271.33984375 102.40551758 C273.00157701 104.28366261 274.7307865 106.04701024 276.51953125 107.80395508 C278.91230616 110.15428608 281.15144237 112.56817908 283.33203125 115.11645508 C286.09571154 118.32729263 289.00572721 121.32662673 292.01953125 124.30395508 C295.62016156 127.86107324 299.00394771 131.50779668 302.2890625 135.35473633 C304.83295054 138.22019938 307.5689293 140.87734061 310.3203125 143.54223633 C313.37989751 146.7143578 314.26963119 148.72333735 314.27680016 153.02805996 C314.28324905 154.00546688 314.28969794 154.98287379 314.29634225 155.9898991 C314.29169645 157.60454786 314.29169645 157.60454786 314.28695679 159.2518158 C314.2914879 160.39339049 314.29601901 161.53496519 314.30068743 162.71113306 C314.3111804 165.88507323 314.31265336 169.05887143 314.31029868 172.23282349 C314.30989125 175.65431675 314.32092299 179.07577595 314.33041382 182.49725342 C314.34704457 189.2045556 314.35252441 195.91182264 314.35363857 202.61914372 C314.35458863 208.07425705 314.35869684 213.52935879 314.36503983 218.98446846 C314.38266251 234.45580743 314.39187779 249.92711863 314.39037888 265.39846771 C314.39029897 266.23296458 314.39021905 267.06746144 314.39013672 267.92724609 C314.39005496 268.76276461 314.3899732 269.59828314 314.38988896 270.4591204 C314.38907709 283.98207748 314.40818695 297.50492289 314.43641345 311.0278477 C314.46517728 324.918121 314.47895163 338.80833992 314.4772259 352.69864374 C314.47656292 360.49475569 314.48201411 368.29075078 314.503582 376.08683586 C314.5218405 382.72933888 314.52610348 389.37167216 314.51256315 396.01418947 C314.50605504 399.4001101 314.50803135 402.78544131 314.52326965 406.17137337 C314.53875829 409.85228377 314.52938848 413.53234872 314.51400757 417.21324158 C314.52429469 418.26959759 314.53458182 419.32595361 314.54518068 420.41432041 C314.41438376 434.64756567 308.69874044 445.86727332 299.26171875 456.19458008 C295.58787764 459.65080691 291.49380521 462.02280884 287.01953125 464.30395508 C286.37757813 464.63266602 285.735625 464.96137695 285.07421875 465.30004883 C277.41893357 468.88739098 269.29231272 468.45248351 261.02792358 468.4511261 C259.82238347 468.45480279 258.61684335 468.45847947 257.37477171 468.46226758 C254.04080553 468.47135742 250.70688842 468.47599592 247.37291455 468.47865689 C243.77220227 468.48257532 240.17150404 468.49215237 236.57080078 468.50086975 C227.88244682 468.52058839 219.19409176 468.53069345 210.50572103 468.53959754 C206.40905236 468.54398704 202.31238498 468.54935204 198.21571732 468.55458641 C184.58959662 468.57159229 170.9634767 468.58608591 157.33734703 468.59333515 C153.8051389 468.59524487 150.27293077 468.59716523 146.74072266 468.59912109 C145.86286923 468.59960483 144.9850158 468.60008857 144.08056076 468.60058697 C129.86338962 468.60888542 115.64630266 468.63422208 101.42916827 468.66670177 C86.81669185 468.69981129 72.20425818 468.71778733 57.59174407 468.72097939 C49.39379564 468.72314063 41.19597008 468.73183282 32.99805832 468.75744057 C26.01606418 468.77920064 19.03422278 468.78717191 12.05219857 468.77747378 C8.49405177 468.77294469 4.93621975 468.77473342 1.37811661 468.79423523 C-2.49037058 468.81525395 -6.35842985 468.80483172 -10.22695923 468.79170227 C-11.89057761 468.80815614 -11.89057761 468.80815614 -13.58780444 468.82494241 C-26.85274058 468.71681075 -39.28856383 464.57338794 -49.04296875 455.35473633 C-60.02070039 443.31235399 -62.43428004 432.1541468 -62.3681488 416.17933655 C-62.37232523 414.53702173 -62.37780445 412.8947098 -62.38446862 411.2524032 C-62.39890126 406.75415928 -62.39468533 402.25609892 -62.3873018 397.75784504 C-62.38256707 392.90089844 -62.39508266 388.04399138 -62.40531921 383.1870575 C-62.42250625 373.67784209 -62.42334746 364.16869276 -62.41810631 354.65946586 C-62.41406338 346.92997255 -62.41550963 339.20049877 -62.42085457 331.47100639 C-62.42160299 330.37051926 -62.42235141 329.27003212 -62.42312251 328.13619689 C-62.424654 325.90050201 -62.42619235 323.66480712 -62.42773748 321.42911225 C-62.44146205 300.46835544 -62.43602501 279.50763596 -62.42455227 258.54688 C-62.41461882 239.37445323 -62.42756259 220.20212296 -62.45148646 201.02971108 C-62.47587329 181.33777172 -62.48548642 161.64587732 -62.47883373 141.95392317 C-62.47534074 130.90063543 -62.477579 119.84742191 -62.49508476 108.79414558 C-62.50980145 99.38531178 -62.51044904 89.97660448 -62.49301385 80.56777317 C-62.48449735 75.76853603 -62.48237028 70.96952492 -62.49766541 66.17029953 C-62.51150285 61.77399926 -62.50676149 57.37811885 -62.48742617 52.98184293 C-62.48366298 51.39446258 -62.48659735 49.80704867 -62.49703782 48.2196982 C-62.58582728 33.68260572 -59.39011055 24.26932001 -49.48046875 13.61645508 C-48.65546875 12.85333008 -47.83046875 12.09020508 -46.98046875 11.30395508 C-46.09359375 10.47895508 -45.20671875 9.65395508 -44.29296875 8.80395508 C-31.3740408 -1.58378342 -15.67356772 0.13493661 0 0 Z M43.01953125 73.30395508 C41.59083216 74.02466779 40.1610883 74.74331206 38.73046875 75.46020508 C30.26393834 79.75650116 22.50713325 84.42344814 15.01953125 90.30395508 C13.90771484 91.12959961 13.90771484 91.12959961 12.7734375 91.97192383 C6.11623735 96.96779061 0.06926016 102.60434507 -5.98046875 108.30395508 C-6.74230469 109.00004883 -7.50414062 109.69614258 -8.2890625 110.41333008 C-27.74855781 128.837366 -42.01340836 154.30285733 -50.98046875 179.30395508 C-51.39232422 180.38290039 -51.39232422 180.38290039 -51.8125 181.48364258 C-53.64617956 186.52380993 -54.84885718 191.70822663 -56.04296875 196.92895508 C-56.20547119 197.62657959 -56.36797363 198.3242041 -56.53540039 199.04296875 C-59.36297745 211.84972217 -60.39237004 224.60136061 -60.35546875 237.67895508 C-60.35492493 238.41285461 -60.3543811 239.14675415 -60.3538208 239.90289307 C-60.18341378 290.35836752 -39.31008016 335.06735513 -4.60546875 370.99145508 C5.36717036 380.73549502 16.65806018 388.73949248 28.36962891 396.24633789 C29.79429516 397.15957468 31.21048015 398.08601748 32.625 399.01489258 C42.18497948 405.06794491 52.96429473 409.73101006 63.87890625 412.69458008 C65.91835017 413.2751517 67.81054661 413.99731434 69.76953125 414.80395508 C75.01184438 416.81298526 80.4718517 417.81733195 85.96607971 418.8979187 C87.93935641 419.28810182 89.91041128 419.68947082 91.88134766 420.09130859 C101.97009573 422.07053893 111.68714714 422.8320278 121.95703125 422.74145508 C123.08498108 422.7363945 123.08498108 422.7363945 124.23571777 422.73123169 C152.11459161 422.55174924 179.15698173 417.22575364 204.01953125 404.30395508 C205.24694975 403.6923819 206.47482332 403.08172127 207.703125 402.47192383 C233.36124745 389.50577855 256.47898765 369.83501128 273.01953125 346.30395508 C273.43009766 345.72709961 273.84066406 345.15024414 274.26367188 344.5559082 C283.75385561 331.12970357 291.70854036 316.90279256 297.01953125 301.30395508 C297.25768555 300.6376709 297.49583984 299.97138672 297.74121094 299.28491211 C313.17909648 255.91599792 310.99296393 205.31205204 291.8671875 163.44067383 C290.04813521 159.65213432 288.05652946 155.97931315 286.01953125 152.30395508 C285.55417969 151.37711914 285.08882813 150.4502832 284.609375 149.49536133 C278.0986919 136.72075571 269.29783271 125.13551909 259.39453125 114.81958008 C257.01953125 112.30395508 257.01953125 112.30395508 254.9140625 109.66723633 C252.01124043 106.04619024 248.57773054 103.26641324 245.01953125 100.30395508 C244.51019043 99.87163574 244.00084961 99.43931641 243.47607422 98.99389648 C225.1529944 83.4946702 204.66536564 72.16423789 182.01953125 64.30395508 C181.28605469 64.04195312 180.55257812 63.77995117 179.796875 63.51000977 C136.70887039 48.22965822 83.41928295 51.87846878 43.01953125 73.30395508 Z " fill="#F11C18" transform="translate(123.98046875,15.696044921875)"/>
<path d="M0 0 C3.07253036 3.04459046 3.35959554 5.65589 3.4198786 9.90152532 C3.41591492 10.69052541 3.41195123 11.47952551 3.40786743 12.29243469 C3.41536967 13.13620877 3.4228719 13.97998285 3.43060148 14.84932584 C3.45196139 17.68132062 3.45181786 20.51290128 3.45166016 23.3449707 C3.46227187 25.37359258 3.47410164 27.40220841 3.48706055 29.43081665 C3.51787208 34.94535424 3.52898571 40.45976206 3.53470278 45.97437692 C3.53905411 49.4191379 3.54742678 52.86386514 3.55720139 56.30861473 C3.59095891 68.32481994 3.60808415 80.34092682 3.61083984 92.35717773 C3.61387483 103.56018954 3.65432065 114.76264957 3.71198809 125.96550113 C3.75974628 135.58176893 3.78057189 145.19785446 3.78063047 154.81424016 C3.78116892 160.5585788 3.79279404 166.30237731 3.83180618 172.04659462 C3.86763408 177.45015325 3.8699727 182.85270396 3.84663391 188.25632095 C3.84377067 190.23846229 3.85285307 192.22066265 3.87481308 194.2026844 C4.04997706 211.05888859 4.04997706 211.05888859 -0.30264282 215.58879089 C-2.10773659 216.93666363 -2.10773659 216.93666363 -4 218 C-4.69412176 218.41252172 -5.38824352 218.82504343 -6.10339928 219.2500658 C-14.32343521 223.85474994 -23.1648204 225.30980092 -32.42578125 223.53515625 C-41.21584586 220.96948972 -46.91083471 215.86598248 -51.7734375 208.24609375 C-54.56032854 203.14271048 -55.41861437 198.71695867 -56 193 C-58.87467584 191.98195889 -58.87467584 191.98195889 -61.71875 192.77734375 C-62.3065625 193.16019531 -62.894375 193.54304687 -63.5 193.9375 C-68.83768562 196.80089397 -74.08014898 196.80614202 -80 196 C-85.82041276 194.05292095 -89.27466488 190.01933646 -92.25 184.8125 C-93.76912396 179.11578516 -93.75752951 173.83069631 -91.5 168.375 C-90.7575 167.199375 -90.7575 167.199375 -90 166 C-86.37 166.33 -82.74 166.66 -79 167 C-79.495 165.02 -79.495 165.02 -80 163 C-81.794375 162.62875 -81.794375 162.62875 -83.625 162.25 C-89.95547098 160.65060539 -94.37082787 157.4437582 -98 152 C-100.54533591 146.65479459 -100.59753626 140.81719122 -100 135 C-98.984375 132.6640625 -98.984375 132.6640625 -98 131 C-95 132 -95 132 -92.5 134.5625 C-90.2239365 137.34905007 -90.2239365 137.34905007 -87 137 C-86.53528107 132.95498035 -86.53528107 132.95498035 -89.1875 130.75 C-90.115625 129.8425 -91.04375 128.935 -92 128 C-98.39462648 119.22555514 -100.2789648 110.83087306 -99 100 C-96.50885176 92.00559273 -92.35009914 86.67953152 -85.7578125 81.62109375 C-85.17773438 81.08613281 -84.59765625 80.55117187 -84 80 C-84 79.01 -84 78.02 -84 77 C-85.11375 75.948125 -85.11375 75.948125 -86.25 74.875 C-90.55175395 70.37771178 -92.6370895 65.58573731 -93.5 59.4375 C-92.46063413 52.29185964 -89.32371574 47.73611417 -83.78125 43.2265625 C-76.43961665 38.17113954 -67.45196634 39.46327885 -59 41 C-59 39.68 -59 38.36 -59 37 C-62.3 36.34 -65.6 35.68 -69 35 C-68.75310577 26.11180782 -66.7018933 21.75138692 -60.515625 15.5 C-54.42314366 9.99711363 -48.59741947 8.66505407 -40.6484375 8.69921875 C-37.79865595 9.02286651 -35.6299256 9.8891967 -33 11 C-30.29113059 11.16798262 -30.29113059 11.16798262 -28 11 C-28 10.01 -28 9.02 -28 8 C-34.93805182 4.87107467 -41.43781278 4.33430401 -49 4 C-46.78706824 -1.23266155 -42.76764328 -4.11029865 -38 -7 C-24.51530622 -11.89381121 -10.91390799 -8.96343046 0 0 Z " fill="#FEFAFA" transform="translate(248,147)"/>
<path d="M0 0 C7.8738016 6.7489728 7.8738016 6.7489728 10.65625 9.7421875 C11.27822266 10.40734375 11.90019531 11.0725 12.54101562 11.7578125 C13.51071289 12.80582031 13.51071289 12.80582031 14.5 13.875 C15.19287109 14.6175 15.88574219 15.36 16.59960938 16.125 C18.03529283 17.66369798 19.46953468 19.20374228 20.90234375 20.74511719 C24.09127493 24.17306974 27.29619518 27.58595613 30.5 31 C31.73961482 32.32288716 32.97919796 33.64580401 34.21875 34.96875 C38.80479392 39.86053018 43.40166481 44.742104 47.99975586 49.62255859 C51.37220961 53.20329034 54.73969205 56.7884848 58.09765625 60.3828125 C58.76345703 61.09501953 59.42925781 61.80722656 60.11523438 62.54101562 C61.36627259 63.87989002 62.61635473 65.21965877 63.86523438 66.56054688 C66.76825617 69.66648564 69.70559235 72.72314572 72.72265625 75.71875 C75.0468496 78.02707966 77.26665146 80.36506127 79.375 82.875 C81.96634205 85.8846753 84.67254783 88.71088616 87.5 91.5 C90.95048906 94.90370276 94.16637394 98.42438989 97.3203125 102.1015625 C98.98204576 103.97970753 100.71125525 105.74305516 102.5 107.5 C104.89277491 109.85033101 107.13191112 112.264224 109.3125 114.8125 C112.07618029 118.02333755 114.98619596 121.02267165 118 124 C121.60009889 127.55659316 124.98541115 131.200435 128.265625 135.05078125 C130.82897027 137.93165802 133.60623325 140.58083589 136.3984375 143.23828125 C138 145 138 145 139 148 C112.90210988 150.04950903 112.90210988 150.04950903 106.93896484 146.91748047 C103.67370027 143.66592109 102.49869571 139.24630451 101 135 C98.93932864 131.78900787 98.93932864 131.78900787 96.5625 128.8125 C95.81742187 127.83796875 95.07234375 126.8634375 94.3046875 125.859375 C91.35136682 122.1952551 88.2453674 118.70129715 85.04296875 115.25390625 C83.62200922 113.68623197 82.25912499 112.06475094 80.9453125 110.40625 C78.01263653 106.77868293 74.57700347 103.978114 71 101 C70.49065918 100.56768066 69.98131836 100.13536133 69.45654297 99.68994141 C51.04612616 84.11683803 30.63907177 73.12205874 8 65 C5.36 64.01 2.72 63.02 0 62 C0 41.54 0 21.08 0 0 Z " fill="#F86868" transform="translate(298,16)"/>
<path d="M0 0 C4.48398784 -0.09903473 8.96739292 -0.17154483 13.45214844 -0.21972656 C14.97700085 -0.23981599 16.50177648 -0.26709316 18.02636719 -0.30175781 C20.22089598 -0.35039796 22.41440469 -0.37299396 24.609375 -0.390625 C25.92905273 -0.41157227 27.24873047 -0.43251953 28.60839844 -0.45410156 C32 0 32 0 34.31665039 1.66699219 C36.20951982 4.29038019 37.25719723 6.66492015 38.32421875 9.71875 C38.71287109 10.81574219 39.10152344 11.91273438 39.50195312 13.04296875 C39.89318359 14.18378906 40.28441406 15.32460938 40.6875 16.5 C41.09033203 17.64082031 41.49316406 18.78164063 41.90820312 19.95703125 C45.06653411 28.96118425 45.06653411 28.96118425 46 33 C46.556875 33.01417969 47.11375 33.02835937 47.6875 33.04296875 C54.85469029 33.49091814 59.99222533 35.79817536 64.9375 41.0625 C67.96728169 46.58739603 67.66219853 52.64091773 66 58.5625 C63.33267688 63.14696161 60.74822206 66.49317469 56 69 C50.1301519 70.059436 44.99650548 69.8556452 39.5 67.5 C34.77820457 62.77820457 31.41516156 57.52887328 30.625 50.8125 C31.10915458 45.89026172 33.01804236 42.86394511 36 39 C36.57105469 38.57203125 37.14210938 38.1440625 37.73046875 37.703125 C39.30313274 35.956665 39.30313274 35.956665 38.94140625 33.02734375 C37.90960879 27.69147689 35.84683276 22.63234137 33.9375 17.5625 C32.638125 14.076875 31.33875 10.59125 30 7 C15.15 6.505 15.15 6.505 0 6 C0 4.02 0 2.04 0 0 Z " fill="#FEF5F6" transform="translate(256,291)"/>
<path d="M0 0 C4.90713015 2.31973425 7.8111048 5.71776931 11 10 C12.71728565 15.15185695 12.4380073 19.50562216 10.9375 24.625 C8.30222547 29.21547821 4.76043137 32.61978431 0 35 C-1.53668865 35.22467831 -3.07968054 35.40796805 -4.625 35.5625 C-5.44226563 35.64628906 -6.25953125 35.73007813 -7.1015625 35.81640625 C-7.72804688 35.87699219 -8.35453125 35.93757813 -9 36 C-9.39324463 37.09671021 -9.39324463 37.09671021 -9.79443359 38.21557617 C-10.98701883 41.53988775 -12.18099512 44.86369807 -13.375 48.1875 C-13.99375 49.91323242 -13.99375 49.91323242 -14.625 51.67382812 C-15.02460938 52.78564453 -15.42421875 53.89746094 -15.8359375 55.04296875 C-16.20251465 56.06414795 -16.5690918 57.08532715 -16.94677734 58.13745117 C-17.29434082 59.08209229 -17.6419043 60.0267334 -18 61 C-18.31275879 61.88598877 -18.62551758 62.77197754 -18.94775391 63.68481445 C-20.09093748 66.20008356 -20.68776759 67.47711483 -23 69 C-25.51727719 69.26153286 -27.78103966 69.3497922 -30.29296875 69.29296875 C-31.35201164 69.28660149 -31.35201164 69.28660149 -32.43244934 69.28010559 C-34.68452303 69.26333034 -36.93569742 69.22568243 -39.1875 69.1875 C-40.71548185 69.17245157 -42.24347776 69.15876344 -43.77148438 69.14648438 C-47.51466872 69.11343089 -51.25718196 69.06165832 -55 69 C-55 67.02 -55 65.04 -55 63 C-40.15 62.505 -40.15 62.505 -25 62 C-23.68 57.71 -22.36 53.42 -21 49 C-20.00957116 46.66258794 -19.01059562 44.32876382 -18 42 C-16.93123414 38.68584531 -15.95036139 35.3498554 -15 32 C-15.60199219 31.76410156 -16.20398438 31.52820313 -16.82421875 31.28515625 C-20.95594857 28.84469106 -22.5116704 24.40823048 -24 20 C-24.44840769 15.31413964 -23.46551559 11.93103118 -21.375 7.75 C-15.0764334 0.45692288 -9.76885453 -1.45580423 0 0 Z " fill="#FEF5F5" transform="translate(311,149)"/>
<path d="M0 0 C4.05949084 2.27234447 6.60375757 5.14501515 8.6875 9.3125 C9.41418556 16.06029447 9.50517895 22.06608103 5.37109375 27.6875 C1.29506452 31.62167206 -3.41359488 33.0833218 -8.9375 33.75 C-15.5315943 32.89521 -20.11138615 30.47386845 -24.3125 25.3125 C-24.9725 23.3325 -25.6325 21.3525 -26.3125 19.3125 C-44.4625 18.9825 -62.6125 18.6525 -81.3125 18.3125 C-81.3125 16.6625 -81.3125 15.0125 -81.3125 13.3125 C-63.1625 13.3125 -45.0125 13.3125 -26.3125 13.3125 C-25.9825 11.3325 -25.6525 9.3525 -25.3125 7.3125 C-19.43890396 -1.49789406 -9.72864563 -4.44841417 0 0 Z " fill="#FEFCFC" transform="translate(338.3125,238.6875)"/>
<path d="M0 0 C1.65 0.33 3.3 0.66 5 1 C4.835 1.639375 4.67 2.27875 4.5 2.9375 C3.66524341 8.05038413 3.20793041 12.90334519 5.0625 17.8125 C8.45936717 21.64767261 11.61429307 23.68424467 16.65625 24.3515625 C22.62595507 24.53196568 26.6846398 23.60344173 32 21 C33.32 21 34.64 21 36 21 C36 22.65 36 24.3 36 26 C34.730447 26.64834654 33.45930294 27.29357815 32.1875 27.9375 C31.47980469 28.29714844 30.77210938 28.65679687 30.04296875 29.02734375 C24.16335474 31.82662461 16.91897078 32.12343829 10.65625 30.328125 C8.75 29.5 8.75 29.5 6 28 C3.90919661 36.36321356 4.69972595 41.37785338 9.00390625 48.703125 C10.14440109 51.33297193 10.00693317 52.3711206 9 55 C4.48148777 54.46841033 4.48148777 54.46841033 2.41796875 52.4609375 C-2.64111746 43.88458182 -1.72108018 34.50613088 -0.3125 24.9375 C0.04741509 20.40256982 -0.98077727 18.95767655 -3 15 C-3.61367969 10.19931581 -3.60932994 6.26943738 -1.5 1.875 C-1.005 1.25625 -0.51 0.6375 0 0 Z " fill="#FB1114" transform="translate(190,227)"/>
<path d="M0 0 C2.97062645 1.51518241 3.57470347 1.85879135 4.8125 5.0625 C4.791875 5.805 4.77125 6.5475 4.75 7.3125 C3.125 8 3.125 8 0.75 8.3125 C-0.054375 7.838125 -0.85875 7.36375 -1.6875 6.875 C-7.13810253 4.48438486 -12.39075794 4.52543763 -18.25 5.3125 C-21.88793142 6.85068577 -24.27062154 9.03504983 -26.6875 12.1875 C-28.101271 17.52841267 -27.12569443 22.94887159 -26.25 28.3125 C-27.57 28.6425 -28.89 28.9725 -30.25 29.3125 C-33.91764529 24.95717121 -35.01143696 21.623936 -34.76171875 15.90625 C-33.53499617 9.68835844 -29.55662538 5.02090374 -24.5625 1.3125 C-17.24176002 -3.10756942 -7.91908273 -3.15744778 0 0 Z " fill="#FB1316" transform="translate(234.25,174.6875)"/>
<path d="M0 0 C2.87789184 1.36321192 5.18021361 2.6029994 7.5625 4.6875 C7.2325 6.0075 6.9025 7.3275 6.5625 8.6875 C3.60494799 8.27481832 1.02584842 7.90630342 -1.6875 6.625 C-7.06613396 4.79137479 -12.4844995 5.00033316 -17.8125 6.875 C-21.27486126 9.26567801 -23.55778805 11.9280761 -25.4375 15.6875 C-25.62510359 20.47139142 -25.20807552 24.96772492 -24.4375 29.6875 C-25.7575 30.0175 -27.0775 30.3475 -28.4375 30.6875 C-32.46237947 24.95444887 -32.19870326 19.46990658 -31.4375 12.6875 C-28.71911876 6.83252501 -24.01971457 3.42899355 -18.75 -0.125 C-12.6088137 -2.32655735 -6.15404399 -2.17404545 0 0 Z " fill="#FB1115" transform="translate(219.4375,294.3125)"/>
<path d="M0 0 C1.65 0 3.3 0 5 0 C4.86980469 0.845625 4.73960937 1.69125 4.60546875 2.5625 C3.80002231 9.18673239 3.27829296 14.02904867 7.49609375 19.4765625 C11.43578135 23.46741487 15.06447356 24.18350449 20.5 24.375 C25.08364099 24.26320388 27.99104676 23.29083042 32 21 C34.875 20.8125 34.875 20.8125 37 21 C37.0625 23.25 37.0625 23.25 36 26 C29.89059429 29.69236448 23.14186427 31.84305312 16 31 C7.1278575 28.73070007 2.92662945 24.38994417 -2 17 C-2.265625 14.00390625 -2.265625 14.00390625 -2.25 10.5625 C-2.25515625 9.42941406 -2.2603125 8.29632813 -2.265625 7.12890625 C-2.01398568 4.16474309 -1.54596941 2.49686329 0 0 Z " fill="#FB1013" transform="translate(207,320)"/>
<path d="M0 0 C0.66 0.33 1.32 0.66 2 1 C-0.97 3.97 -3.94 6.94 -7 10 C-7 6.04435836 -5.59478606 4.89133304 -3 2 C-2.01 1.34 -1.02 0.68 0 0 Z " fill="#FDCCCD" transform="translate(321,238)"/>
</svg>
