<?xml version="1.0" encoding="UTF-8"?>
<svg version="1.1" xmlns="http://www.w3.org/2000/svg" width="32" height="32">
<path d="M0 0 C0.66 0 1.32 0 2 0 C2.66 1.32 3.32 2.64 4 4 C4.66 2.68 5.32 1.36 6 0 C6.66 0 7.32 0 8 0 C8.33 1.65 8.66 3.3 9 5 C10.32 4.01 11.64 3.02 13 2 C12.67 3.98 12.34 5.96 12 8 C13.98 7.67 15.96 7.34 18 7 C17.01 8.32 16.02 9.64 15 11 C17.475 11.495 17.475 11.495 20 12 C20 12.66 20 13.32 20 14 C18.02 14.99 18.02 14.99 16 16 C17.32 16.66 18.64 17.32 20 18 C20 18.66 20 19.32 20 20 C18.35 20.33 16.7 20.66 15 21 C15.99 22.32 16.98 23.64 18 25 C16.02 24.67 14.04 24.34 12 24 C12.33 25.98 12.66 27.96 13 30 C11.68 29.01 10.36 28.02 9 27 C8.67 28.65 8.34 30.3 8 32 C7.34 32 6.68 32 6 32 C5.34 30.68 4.68 29.36 4 28 C3.34 29.32 2.68 30.64 2 32 C1.34 32 0.68 32 0 32 C-0.33 30.35 -0.66 28.7 -1 27 C-1.45375 27.495 -1.9075 27.99 -2.375 28.5 C-4 30 -4 30 -6 30 C-5.34 28.02 -4.68 26.04 -4 24 C-5.98 24.33 -7.96 24.66 -10 25 C-9.01 23.68 -8.02 22.36 -7 21 C-8.65 20.67 -10.3 20.34 -12 20 C-12 19.34 -12 18.68 -12 18 C-10.68 17.67 -9.36 17.34 -8 17 C-8 16.34 -8 15.68 -8 15 C-9.32 14.67 -10.64 14.34 -12 14 C-12 13.34 -12 12.68 -12 12 C-10.35 11.67 -8.7 11.34 -7 11 C-7.99 9.68 -8.98 8.36 -10 7 C-7.03 7.495 -7.03 7.495 -4 8 C-4.66 6.02 -5.32 4.04 -6 2 C-2.125 3.875 -2.125 3.875 -1 5 C-0.67 3.35 -0.34 1.7 0 0 Z " fill="#F5B304" transform="translate(12,0)"/>
<path d="M0 0 C3.5 0.5625 3.5 0.5625 6 2.125 C7.5 4.5625 7.5 4.5625 7.5 8.125 C6.5 11.5625 6.5 11.5625 4.8125 13.5625 C1.72020156 14.89971014 -0.28776145 14.36555964 -3.5 13.5625 C-3.5 12.9025 -3.5 12.2425 -3.5 11.5625 C-4.16 11.5625 -4.82 11.5625 -5.5 11.5625 C-6.75 8.875 -6.75 8.875 -7.5 5.5625 C-5.52364092 1.60978185 -4.38650963 0.70497476 0 0 Z " fill="#F4D108" transform="translate(15.5,8.4375)"/>
<path d="M0 0 C0.75 1.75 0.75 1.75 1 4 C-0.6875 6.3125 -0.6875 6.3125 -3 8 C-5.25 7.75 -5.25 7.75 -7 7 C-7.6875 5.1875 -7.6875 5.1875 -8 3 C-5.85915306 -0.33020635 -3.75910189 -0.30479204 0 0 Z " fill="#F8E506" transform="translate(19,12)"/>
</svg>
