<?xml version="1.0" encoding="UTF-8"?>
<svg version="1.1" xmlns="http://www.w3.org/2000/svg" width="32" height="32">
<path d="M0 0 C5.28 0 10.56 0 16 0 C16.66 1.32 17.32 2.64 18 4 C18.99 5.485 18.99 5.485 20 7 C20.23046875 10.03125 20.23046875 10.03125 20.1875 13.5 C20.18105469 14.6446875 20.17460938 15.789375 20.16796875 16.96875 C20 20 20 20 19 23 C18.01 22.67 17.02 22.34 16 22 C15.67 21.01 15.34 20.02 15 19 C14.34 19 13.68 19 13 19 C12.93941406 18.28972656 12.87882812 17.57945313 12.81640625 16.84765625 C12.69072266 15.46900391 12.69072266 15.46900391 12.5625 14.0625 C12.48128906 13.14597656 12.40007813 12.22945312 12.31640625 11.28515625 C12.23955024 9.03840268 12.23955024 9.03840268 11 8 C8.32941149 7.85884839 5.67567762 7.95752893 3 8 C2.67 8.99 2.34 9.98 2 11 C-0.08865152 13.5859495 -1.73810844 14.4376049 -5 15 C-5.12375 15.61875 -5.2475 16.2375 -5.375 16.875 C-6 19 -6 19 -8 21 C-10.125 21.625 -10.125 21.625 -12 22 C-12.3945478 10.71154909 -12.3945478 10.71154909 -10 7 C-8.125 6.3125 -8.125 6.3125 -6 6 C-2.14442385 4.52580912 -2.01960928 4.03921856 0 0 Z M6 5 C6 5.33 6 5.66 6 6 C7.65 6 9.3 6 11 6 C11 5.67 11 5.34 11 5 C9.35 5 7.7 5 6 5 Z " fill="#000000" transform="translate(12,0)"/>
<path d="M0 0 C3.68954546 1.22984849 3.35620309 1.71240619 5 5 C6.62746694 6.70496537 8.28891311 8.37897032 10 10 C9.34 11.98 8.68 13.96 8 16 C7.34 16 6.68 16 6 16 C5.67 16.66 5.34 17.32 5 18 C5 16.35 5 14.7 5 13 C4.34 14.98 3.68 16.96 3 19 C0.69 18.67 -1.62 18.34 -4 18 C-4 17.34 -4 16.68 -4 16 C-4.99 15.67 -5.98 15.34 -7 15 C-7.74609375 12.76171875 -7.74609375 12.76171875 -8 10 C-6.34765625 7.83203125 -6.34765625 7.83203125 -4.0625 5.8125 C-2.68013306 4.57240067 -1.3189206 3.30737644 0 2 C0 1.34 0 0.68 0 0 Z " fill="#000000" transform="translate(15,13)"/>
<path d="" fill="#000000" transform="translate(0,0)"/>
<path d="" fill="#000000" transform="translate(0,0)"/>
<path d="M0 0 C2 1 2 1 2 1 Z " fill="#000000" transform="translate(4,6)"/>
<path d="" fill="#000000" transform="translate(0,0)"/>
<path d="" fill="#000000" transform="translate(0,0)"/>
<path d="" fill="#000000" transform="translate(0,0)"/>
<path d="" fill="#000000" transform="translate(0,0)"/>
<path d="" fill="#000000" transform="translate(0,0)"/>
<path d="" fill="#000000" transform="translate(0,0)"/>
<path d="" fill="#000000" transform="translate(0,0)"/>
<path d="" fill="#000000" transform="translate(0,0)"/>
<path d="" fill="#000000" transform="translate(0,0)"/>
<path d="" fill="#000000" transform="translate(0,0)"/>
<path d="" fill="#000000" transform="translate(0,0)"/>
<path d="" fill="#000000" transform="translate(0,0)"/>
<path d="" fill="#000000" transform="translate(0,0)"/>
<path d="" fill="#000000" transform="translate(0,0)"/>
<path d="" fill="#000000" transform="translate(0,0)"/>
<path d="" fill="#000000" transform="translate(0,0)"/>
<path d="" fill="#000000" transform="translate(0,0)"/>
<path d="" fill="#000000" transform="translate(0,0)"/>
<path d="" fill="#000000" transform="translate(0,0)"/>
<path d="" fill="#000000" transform="translate(0,0)"/>
<path d="" fill="#000000" transform="translate(0,0)"/>
<path d="" fill="#000000" transform="translate(0,0)"/>
<path d="" fill="#000000" transform="translate(0,0)"/>
<path d="" fill="#000000" transform="translate(0,0)"/>
<path d="" fill="#000000" transform="translate(0,0)"/>
<path d="" fill="#000000" transform="translate(0,0)"/>
<path d="" fill="#000000" transform="translate(0,0)"/>
<path d="" fill="#000000" transform="translate(0,0)"/>
<path d="" fill="#000000" transform="translate(0,0)"/>
<path d="" fill="#000000" transform="translate(0,0)"/>
<path d="" fill="#000000" transform="translate(0,0)"/>
<path d="" fill="#000000" transform="translate(0,0)"/>
<path d="" fill="#000000" transform="translate(0,0)"/>
<path d="" fill="#000000" transform="translate(0,0)"/>
<path d="" fill="#000000" transform="translate(0,0)"/>
<path d="" fill="#000000" transform="translate(0,0)"/>
<path d="" fill="#000000" transform="translate(0,0)"/>
</svg>
