<?xml version="1.0" encoding="UTF-8"?>
<svg version="1.1" xmlns="http://www.w3.org/2000/svg" width="290" height="174">
<path d="M0 0 C95.7 0 191.4 0 290 0 C290 57.42 290 114.84 290 174 C194.3 174 98.6 174 0 174 C0 116.58 0 59.16 0 0 Z " fill="#C70F2C" transform="translate(0,0)"/>
<path d="M0 0 C42.24 0 84.48 0 128 0 C128 23.1 128 46.2 128 70 C85.76 70 43.52 70 0 70 C0 46.9 0 23.8 0 0 Z " fill="#FCFAFA" transform="translate(162,104)"/>
<path d="M0 0 C42.24 0 84.48 0 128 0 C128 23.1 128 46.2 128 70 C85.76 70 43.52 70 0 70 C0 46.9 0 23.8 0 0 Z " fill="#FCF9FA" transform="translate(0,104)"/>
<path d="M0 0 C42.24 0 84.48 0 128 0 C128 23.1 128 46.2 128 70 C85.76 70 43.52 70 0 70 C0 46.9 0 23.8 0 0 Z " fill="#FCFAFA" transform="translate(162,0)"/>
<path d="M0 0 C42.24 0 84.48 0 128 0 C128 23.1 128 46.2 128 70 C85.76 70 43.52 70 0 70 C0 46.9 0 23.8 0 0 Z " fill="#FCFAFA" transform="translate(0,0)"/>
<path d="M0 0 C26.73 0 53.46 0 81 0 C78.09216064 2.90783936 75.20026933 4.81225091 71.69140625 6.8515625 C71.0612561 7.2229686 70.43110596 7.59437469 69.78186035 7.97703552 C68.42146847 8.77836921 67.05990291 9.57771304 65.69729614 10.37527466 C62.06350316 12.50252376 58.43838583 14.64446663 54.8125 16.78515625 C54.07363052 17.22091476 53.33476105 17.65667328 52.57350159 18.1056366 C45.36508484 22.36239539 38.20945113 26.70359472 31.0625 31.0625 C23.33614353 35.76934068 15.604177 40.46434045 7.8125 45.0625 C7.11713135 45.47443604 6.4217627 45.88637207 5.70532227 46.31079102 C1.12297704 49 1.12297704 49 0 49 C0 32.83 0 16.66 0 0 Z " fill="#022068" transform="translate(174,0)"/>
<path d="M0 0 C11.23809524 5.61904762 11.23809524 5.61904762 15.9765625 8.5390625 C17.04398682 9.19277832 18.11141113 9.84649414 19.21118164 10.52001953 C20.04409225 11.03366058 20.04409225 11.03366058 20.89382935 11.55767822 C23.93540828 13.43290839 26.98535773 15.29442764 30.03515625 17.15625 C30.67490891 17.54708771 31.31466156 17.93792542 31.97380066 18.34060669 C40.95278552 23.81524669 50.01595422 29.14949663 59.07470703 34.49072266 C75.86162921 44.402807 75.86162921 44.402807 81 48 C81 48.33 81 48.66 81 49 C54.27 49 27.54 49 0 49 C0 32.83 0 16.66 0 0 Z " fill="#022068" transform="translate(174,125)"/>
<path d="M0 0 C0 16.17 0 32.34 0 49 C-26.73 49 -53.46 49 -81 49 C-77.16594483 45.93275586 -73.68910326 43.51164345 -69.49609375 41.05078125 C-68.55497742 40.49572655 -68.55497742 40.49572655 -67.59484863 39.92945862 C-66.24614028 39.13435929 -64.89644901 38.3409253 -63.54586792 37.54901123 C-59.94229425 35.43559484 -56.34638825 33.309207 -52.75 31.18359375 C-51.65159035 30.53490326 -51.65159035 30.53490326 -50.5309906 29.87310791 C-43.29881678 25.59667125 -36.11301622 21.24564294 -28.9375 16.875 C-27.77427466 16.16711656 -26.61102633 15.4592709 -25.44775391 14.75146484 C-23.2778329 13.43076726 -21.1080644 12.10981905 -18.93847656 10.78857422 C-14.90083518 8.33096698 -10.8600505 5.87875246 -6.8125 3.4375 C-5.68457031 2.75558594 -4.55664062 2.07367188 -3.39453125 1.37109375 C-1 0 -1 0 0 0 Z " fill="#011F68" transform="translate(116,125)"/>
<path d="M0 0 C26.73 0 53.46 0 81 0 C81 16.17 81 32.34 81 49 C68.61057365 42.24213108 68.61057365 42.24213108 62.91015625 38.85546875 C62.29100845 38.48812622 61.67186066 38.12078369 61.03395081 37.74230957 C59.04217139 36.55953687 57.05224431 35.37369257 55.0625 34.1875 C53.66000414 33.35325359 52.25749745 32.51902537 50.85498047 31.68481445 C38.16624463 24.1294512 25.53760621 16.4761684 12.93457031 8.77880859 C9.2251183 6.53030049 5.48855029 4.32880136 1.74365234 2.13989258 C1.16824707 1.76372803 0.5928418 1.38756348 0 1 C0 0.67 0 0.34 0 0 Z " fill="#011F68" transform="translate(35,0)"/>
<path d="M0 0 C-1.318177 3.95453099 -3.67344641 4.88644088 -7.11328125 6.8515625 C-7.74558151 7.22256073 -8.37788177 7.59355896 -9.02934265 7.97579956 C-10.39985969 8.77868883 -11.7727529 9.57753256 -13.14770508 10.37280273 C-16.08340125 12.07091773 -19.00777153 13.78810344 -21.93283081 15.50445557 C-23.43561694 16.38608519 -24.93898015 17.26673182 -26.44290161 18.14642334 C-32.21083328 21.52315953 -37.93508209 24.96522761 -43.63891602 28.44897461 C-45.88874491 29.82188174 -48.14320106 31.18723325 -50.40209961 32.54516602 C-56.00554176 35.9144543 -61.55262745 39.34019628 -67.01776123 42.9306488 C-95.43760406 61.54361198 -95.43760406 61.54361198 -115 58 C-111.35086439 54.9440883 -107.59902388 52.4587762 -103.49609375 50.05078125 C-102.55599709 49.49633835 -102.55599709 49.49633835 -101.59690857 48.93069458 C-100.24888502 48.13601033 -98.89987993 47.34298915 -97.54998779 46.55148315 C-93.92542761 44.42566305 -90.30870878 42.28657619 -86.69140625 40.1484375 C-85.95603638 39.71411911 -85.2206665 39.27980072 -84.4630127 38.83232117 C-78.70687953 35.42872469 -72.97840484 31.98184105 -67.26782227 28.50244141 C-65.0024418 27.12368427 -62.7333715 25.75097189 -60.46069336 24.38427734 C-54.99118259 21.09117982 -49.57558426 17.74529302 -44.24707031 14.22743225 C-17.56851831 -3.3483529 -17.56851831 -3.3483529 0 0 Z " fill="#C8112D" transform="translate(116,116)"/>
<path d="M0 0 C-3.64913561 3.0559117 -7.40097612 5.5412238 -11.50390625 7.94921875 C-12.44400291 8.50366165 -12.44400291 8.50366165 -13.40309143 9.06930542 C-14.75111498 9.86398967 -16.10012007 10.65701085 -17.45001221 11.44851685 C-21.07457239 13.57433695 -24.69129122 15.71342381 -28.30859375 17.8515625 C-29.41164856 18.50304008 -29.41164856 18.50304008 -30.5369873 19.16767883 C-36.29312047 22.57127531 -42.02159516 26.01815895 -47.73217773 29.49755859 C-49.9975582 30.87631573 -52.2666285 32.24902811 -54.53930664 33.61572266 C-60.00881741 36.90882018 -65.42441574 40.25470698 -70.75292969 43.77256775 C-97.43148169 61.3483529 -97.43148169 61.3483529 -115 58 C-113.681823 54.04546901 -111.32655359 53.11355912 -107.88671875 51.1484375 C-107.25441849 50.77743927 -106.62211823 50.40644104 -105.97065735 50.02420044 C-104.60014031 49.22131117 -103.2272471 48.42246744 -101.85229492 47.62719727 C-98.91659875 45.92908227 -95.99222847 44.21189656 -93.06716919 42.49554443 C-91.56438306 41.61391481 -90.06101985 40.73326818 -88.55709839 39.85357666 C-82.78916672 36.47684047 -77.06491791 33.03477239 -71.36108398 29.55102539 C-69.11125509 28.17811826 -66.85679894 26.81276675 -64.59790039 25.45483398 C-58.99445824 22.0855457 -53.44737255 18.65980372 -47.98223877 15.0693512 C-19.56239594 -3.54361198 -19.56239594 -3.54361198 0 0 Z " fill="#C8112D" transform="translate(289,0)"/>
<path d="M0 0 C20.46 0 40.92 0 62 0 C58.18220452 3.05423639 54.5058896 5.61411746 50.3203125 8.0546875 C49.35780579 8.622658 49.35780579 8.622658 48.37585449 9.20210266 C46.29422711 10.42981774 44.20964455 11.65241641 42.125 12.875 C39.23828833 14.57463158 36.35327011 16.27712089 33.46875 17.98046875 C32.75038971 18.40433365 32.03202942 18.82819855 31.29190063 19.26490784 C26.7865904 21.92819405 22.30399223 24.6252197 17.84375 27.36328125 C16.78397949 28.01377441 15.72420898 28.66426758 14.63232422 29.33447266 C12.66294855 30.54794573 10.69573628 31.76493855 8.73095703 32.98583984 C7.86325684 33.52031738 6.99555664 34.05479492 6.1015625 34.60546875 C5.35213379 35.07106201 4.60270508 35.53665527 3.83056641 36.01635742 C2 37 2 37 0 37 C0 24.79 0 12.58 0 0 Z " fill="#021F68" transform="translate(0,116)"/>
<path d="M0 0 C4.00522288 1.60208915 7.33435873 3.2537072 11.0234375 5.421875 C11.5982486 5.7586879 12.17305969 6.09550079 12.76528931 6.44252014 C14.63745407 7.54121936 16.50638569 8.6452747 18.375 9.75 C19.67184376 10.51396905 20.96871907 11.27788454 22.265625 12.04174805 C30.53704444 16.92085457 38.78440018 21.83993542 47 26.8125 C47.94149902 27.38000977 48.88299805 27.94751953 49.85302734 28.53222656 C50.72652832 29.06428711 51.6000293 29.59634766 52.5 30.14453125 C53.2528125 30.60190674 54.005625 31.05928223 54.78125 31.53051758 C57.29821269 33.19750684 59.64260965 35.11408772 62 37 C41.54 37 21.08 37 0 37 C0 24.79 0 12.58 0 0 Z " fill="#021F68" transform="translate(0,21)"/>
<path d="M0 0 C20.46 0 40.92 0 62 0 C62 12.21 62 24.42 62 37 C57.84119268 35.33647707 54.1985429 33.46552799 50.390625 31.17578125 C49.75433167 30.79708389 49.11803833 30.41838654 48.46246338 30.0282135 C46.38948692 28.79321441 44.31966118 27.55304562 42.25 26.3125 C40.81980794 25.45825081 39.38946809 24.604249 37.95898438 23.75048828 C35.05283461 22.01518438 32.14804069 20.27763992 29.24414062 18.53857422 C25.88771884 16.52935582 22.52677646 14.52790913 19.1630249 12.5309906 C16.27362019 10.81522935 13.38702089 9.09476921 10.5 7.375 C9.43297852 6.74247314 8.36595703 6.10994629 7.26660156 5.45825195 C6.30206055 4.88163818 5.33751953 4.30502441 4.34375 3.7109375 C3.50005859 3.20868652 2.65636719 2.70643555 1.78710938 2.18896484 C1.19736328 1.79660645 0.60761719 1.40424805 0 1 C0 0.67 0 0.34 0 0 Z " fill="#011E67" transform="translate(228,116)"/>
<path d="M0 0 C0 12.21 0 24.42 0 37 C-20.46 37 -40.92 37 -62 37 C-58.32076441 34.05661153 -55.10570768 31.77083359 -51.08203125 29.453125 C-50.51528687 29.12442917 -49.94854248 28.79573334 -49.36462402 28.45707703 C-48.14754697 27.75126194 -46.92951075 27.04709866 -45.71060181 26.3444519 C-33.6511052 19.39090548 -21.7406969 12.2278445 -9.95043945 4.82714844 C-8.93167725 4.19196289 -7.91291504 3.55677734 -6.86328125 2.90234375 C-5.96907471 2.34023193 -5.07486816 1.77812012 -4.15356445 1.19897461 C-2 0 -2 0 0 0 Z " fill="#011E67" transform="translate(290,21)"/>
<path d="M0 0 C18.58495551 -3.00767074 30.4004178 3.09543963 45.3157196 13.21646118 C51.98356203 17.72701028 58.90679374 21.7805738 65.85354614 25.84286499 C69.76662284 28.13299503 73.67346902 30.43418033 77.56036377 32.76850891 C80.6100319 34.59926539 83.67227938 36.37733214 86.80004883 38.07177734 C87.40454361 38.41156113 88.00903839 38.75134491 88.6318512 39.10142517 C90.28083216 40.02814094 91.94323431 40.9308601 93.60644531 41.83178711 C96 44 96 44 96.80761719 47.58813477 C96.81206833 51.15416493 96.57769638 54.48444597 96 58 C86.22952184 52.4568607 76.52969606 46.80471966 66.875 41.0625 C65.84768768 40.45230011 65.84768768 40.45230011 64.79962158 39.82977295 C53.804679 33.29771284 42.85757899 26.68986522 31.93994141 20.02954102 C23.47922959 14.87477173 14.96562839 9.81594454 6.39599609 4.84423828 C5.54859863 4.34907715 4.70120117 3.85391602 3.828125 3.34375 C3.0846582 2.91255859 2.34119141 2.48136719 1.57519531 2.03710938 C1.05538086 1.69486328 0.53556641 1.35261719 0 1 C0 0.67 0 0.34 0 0 Z " fill="#C8112D" transform="translate(194,116)"/>
<path d="M0 0 C9.77047816 5.5431393 19.47030394 11.19528034 29.125 16.9375 C30.15231232 17.54769989 30.15231232 17.54769989 31.20037842 18.17022705 C42.195321 24.70228716 53.14242101 31.31013478 64.06005859 37.97045898 C72.52077041 43.12522827 81.03437161 48.18405546 89.60400391 53.15576172 C90.45140137 53.65092285 91.29879883 54.14608398 92.171875 54.65625 C93.2870752 55.30303711 93.2870752 55.30303711 94.42480469 55.96289062 C94.94461914 56.30513672 95.46443359 56.64738281 96 57 C96 57.33 96 57.66 96 58 C77.41504449 61.00767074 65.5995822 54.90456037 50.6842804 44.78353882 C44.01643797 40.27298972 37.09320626 36.2194262 30.14645386 32.15713501 C26.23337716 29.86700497 22.32653098 27.56581967 18.43963623 25.23149109 C15.3899681 23.40073461 12.32772062 21.62266786 9.19995117 19.92822266 C8.59545639 19.58843887 7.99096161 19.24865509 7.3681488 18.89857483 C5.71916784 17.97185906 4.05676569 17.0691399 2.39355469 16.16821289 C-0 14 -0 14 -0.80761719 10.41186523 C-0.81206833 6.84583507 -0.57769638 3.51555403 0 0 Z " fill="#C8112D" transform="translate(0,0)"/>
</svg>
