<?xml version="1.0" encoding="UTF-8"?>
<svg version="1.1" xmlns="http://www.w3.org/2000/svg" width="275" height="183">
<path d="M0 0 C90.75 0 181.5 0 275 0 C275 60.39 275 120.78 275 183 C184.25 183 93.5 183 0 183 C0 122.61 0 62.22 0 0 Z " fill="#E30A16" transform="translate(0,0)"/>
<path d="M0 0 C3.9215391 2.7759999 7.93506992 5.68263985 10.125 10.0625 C6.08921527 8.50026075 2.15273677 6.74739803 -1.7890625 4.96484375 C-9.39804382 1.67331812 -18.67042902 1.8221414 -26.375 4.8125 C-30.15201472 6.55526048 -33.48519647 8.66483409 -36.875 11.0625 C-37.865 11.3925 -38.855 11.7225 -39.875 12.0625 C-40.9605914 13.91007108 -40.9605914 13.91007108 -41.875 16.0625 C-43.10882612 18.01605802 -44.37820479 19.94232673 -45.65625 21.8671875 C-50.21389395 30.07678975 -50.16218978 40.28754044 -48.15234375 49.3046875 C-44.38698603 60.31111775 -38.66569331 65.93726403 -28.4921875 71.32421875 C-18.41277935 75.94259708 -9.0834211 74.67530999 1.1875 71.21875 C4.77886658 69.80512699 7.89438076 68.16615904 11.125 66.0625 C11.125 66.7225 11.125 67.3825 11.125 68.0625 C10.465 68.0625 9.805 68.0625 9.125 68.0625 C8.8878125 68.6503125 8.650625 69.238125 8.40625 69.84375 C3.7314241 77.93918022 -7.49725898 81.26991966 -15.875 84.0625 C-29.4512804 85.45647732 -41.48968658 83.98741049 -52.75 75.75 C-62.67036309 67.31950829 -69.56693639 57.23559949 -71.11206055 44.03759766 C-71.99207138 30.78774425 -69.57326911 19.41687919 -60.7421875 9.05078125 C-44.42682643 -8.32268901 -20.57868918 -13.01299463 0 0 Z " fill="#FEFAFA" transform="translate(116.875,52.9375)"/>
<path d="M0 0 C4.03919345 4.03919345 6.84168113 7.39787822 10 12 C10.73605469 11.79503906 11.47210938 11.59007813 12.23046875 11.37890625 C13.20628906 11.10949219 14.18210938 10.84007813 15.1875 10.5625 C16.63189453 10.16224609 16.63189453 10.16224609 18.10546875 9.75390625 C20.72663697 9.07119982 23.338935 8.50107805 26 8 C25.50628906 8.74765625 25.01257813 9.4953125 24.50390625 10.265625 C23.54291016 11.74289063 23.54291016 11.74289063 22.5625 13.25 C21.60537109 14.71179688 21.60537109 14.71179688 20.62890625 16.203125 C18.61522959 19.41855123 18.61522959 19.41855123 18 23 C19.63755611 25.90450005 19.63755611 25.90450005 21.9375 28.75 C22.68902344 29.73484375 23.44054687 30.7196875 24.21484375 31.734375 C24.80394531 32.48203125 25.39304688 33.2296875 26 34 C24 35 24 35 21.28515625 34.1875 C19.13901143 33.39667815 16.99317709 32.60501317 14.84765625 31.8125 C11.96140271 30.69931865 11.96140271 30.69931865 9 32 C7.55591967 33.80088618 6.18881958 35.66449127 4.875 37.5625 C3.60414145 39.38965012 2.31783871 41.20643925 1 43 C0.67 43 0.34 43 0 43 C0 37.39 0 31.78 0 26 C-2.31 25.67 -4.62 25.34 -7 25 C-9.74971743 24.14816137 -12.3253464 23.07924619 -15 22 C-12.82813579 19.82813579 -11.50023469 19.3206752 -8.625 18.375 C-7.85414063 18.11460938 -7.08328125 17.85421875 -6.2890625 17.5859375 C-4 17 -4 17 0 17 C0 11.39 0 5.78 0 0 Z " fill="#FDF4F4" transform="translate(143,70)"/>
</svg>
